STARTFONT 2.1
COMMENT
COMMENT Converted from OpenType font "Junction-regular.otf" by "otf2bdf 3.0".
COMMENT
FONT -FreeType-Junction Regular-Medium-R-Normal--33-240-100-100-P-162-ISO10646-1
SIZE 24 100 100
FONTBOUNDINGBOX 37 43 -3 -9
STARTPROPERTIES 19
FOUNDRY "FreeType"
FAMILY_NAME "Junction Regular"
WEIGHT_NAME "Medium"
SLANT "R"
SETWIDTH_NAME "Normal"
ADD_STYLE_NAME ""
PIXEL_SIZE 33
POINT_SIZE 240
RESOLUTION_X 100
RESOLUTION_Y 100
SPACING "P"
AVERAGE_WIDTH 162
CHARSET_REGISTRY "ISO10646"
CHARSET_ENCODING "1"
FONT_ASCENT 24
FONT_DESCENT 8
COPYRIGHT "Copyright (c) 2010 by Caroline Hadilaksono. All rights reserved."
_OTF_FONTFILE "Junction-regular.otf"
_OTF_PSNAME "Junction-Regular"
ENDPROPERTIES
CHARS 271
STARTCHAR 0020
ENCODING 32
SWIDTH 270 0
DWIDTH 9 0
BBX 0 0 0 0
BITMAP
ENDCHAR
STARTCHAR 0021
ENCODING 33
SWIDTH 300 0
DWIDTH 10 0
BBX 4 27 3 0
BITMAP
E0
E0
E0
E0
E0
E0
E0
E0
E0
E0
E0
E0
E0
E0
E0
60
60
60
60
60
60
00
00
E0
F0
F0
60
ENDCHAR
STARTCHAR 0022
ENCODING 34
SWIDTH 390 0
DWIDTH 13 0
BBX 10 8 1 18
BITMAP
2180
73C0
F3C0
71C0
30C0
30C0
6180
6300
ENDCHAR
STARTCHAR 0023
ENCODING 35
SWIDTH 810 0
DWIDTH 27 0
BBX 25 26 1 0
BITMAP
00303800
00303800
00303000
00703000
00707000
00607000
00606000
00E06000
3FFFFF80
3FFFFF80
00C0C000
01C0C000
01C1C000
0181C000
01818000
03818000
7FFFFE00
FFFFFE00
03030000
07030000
07070000
06070000
06060000
0E060000
0E060000
0C0E0000
ENDCHAR
STARTCHAR 0024
ENCODING 36
SWIDTH 630 0
DWIDTH 21 0
BBX 17 30 2 -2
BITMAP
01C000
01C000
07F000
1FFC00
3FFE00
79CE00
71C400
71C000
71C000
71C000
71C000
79C000
3FC000
1FC000
0FF800
01FC00
01FE00
01CF00
01C780
01C380
01C380
01C380
61C380
E1C780
79C700
7FFE00
1FFC00
07F800
01C000
01C000
ENDCHAR
STARTCHAR 0025
ENCODING 37
SWIDTH 990 0
DWIDTH 33 0
BBX 29 29 2 -2
BITMAP
000003C0
0F800380
3FE00700
78E00F00
70700E00
E0701C00
E0303C00
E0383800
E0387000
E030F000
E070E000
7071C000
78E3C000
3FE38000
0F871FE0
000F3FF0
000E3878
001C7038
003C7038
00387038
00707018
00F07038
00E07038
01C07038
03C03870
03803FF0
07000FE0
0F000000
0E000000
ENDCHAR
STARTCHAR 0026
ENCODING 38
SWIDTH 870 0
DWIDTH 29 0
BBX 25 26 2 0
BITMAP
01E00000
0FFC0000
1E0E0000
1C070000
38070000
38030000
18070000
1C070000
1E1E0000
0F3C0000
07F80000
03E00000
0FC00000
1EE00000
3C703800
70783800
F03C7000
E01E7000
E00FE000
E007E000
E003C000
F003E000
780FF180
7FFF7B80
1FFC3F80
07F80F00
ENDCHAR
STARTCHAR 0027
ENCODING 39
SWIDTH 210 0
DWIDTH 7 0
BBX 4 8 1 18
BITMAP
70
F0
70
30
30
30
60
60
ENDCHAR
STARTCHAR 0028
ENCODING 40
SWIDTH 330 0
DWIDTH 11 0
BBX 8 35 2 -9
BITMAP
03
07
0F
1E
1C
38
38
70
70
70
60
E0
E0
E0
E0
E0
E0
E0
E0
E0
E0
E0
E0
E0
60
70
70
70
38
38
1C
1C
0F
07
03
ENDCHAR
STARTCHAR 0029
ENCODING 41
SWIDTH 330 0
DWIDTH 11 0
BBX 8 35 1 -9
BITMAP
C0
E0
F0
38
3C
1C
1C
0E
0E
0E
06
07
07
07
07
07
07
07
07
07
07
07
07
07
06
0E
0E
0E
1C
1C
38
38
F0
E0
C0
ENDCHAR
STARTCHAR 002A
ENCODING 42
SWIDTH 630 0
DWIDTH 21 0
BBX 17 17 2 9
BITMAP
018000
018000
018000
018000
018000
C18300
F98F80
7FBF00
1FF800
03E000
03E000
077000
0E7000
1C3800
3C1C00
380E00
100800
ENDCHAR
STARTCHAR 002B
ENCODING 43
SWIDTH 660 0
DWIDTH 22 0
BBX 18 18 2 0
BITMAP
01C000
01C000
01C000
01C000
01C000
01C000
01C000
01C000
FFFFC0
FFFFC0
01C000
01C000
01C000
01C000
01C000
01C000
01C000
01C000
ENDCHAR
STARTCHAR 002C
ENCODING 44
SWIDTH 210 0
DWIDTH 7 0
BBX 4 8 1 -5
BITMAP
60
F0
F0
30
30
30
60
C0
ENDCHAR
STARTCHAR 002D
ENCODING 45
SWIDTH 330 0
DWIDTH 11 0
BBX 8 2 2 8
BITMAP
FF
FF
ENDCHAR
STARTCHAR 002E
ENCODING 46
SWIDTH 210 0
DWIDTH 7 0
BBX 4 4 1 0
BITMAP
70
70
F0
70
ENDCHAR
STARTCHAR 002F
ENCODING 47
SWIDTH 360 0
DWIDTH 12 0
BBX 10 26 1 0
BITMAP
01C0
01C0
0180
0380
0380
0300
0700
0700
0700
0600
0E00
0E00
0C00
1C00
1C00
1C00
3800
3800
3800
3000
7000
7000
6000
E000
E000
E000
ENDCHAR
STARTCHAR 0030
ENCODING 48
SWIDTH 600 0
DWIDTH 20 0
BBX 16 20 2 -1
BITMAP
03C0
1FF8
3FFC
381E
700E
7007
E007
E007
E007
E003
E003
E007
E007
E007
7007
700E
3C1E
1FFC
0FF0
0180
ENDCHAR
STARTCHAR 0031
ENCODING 49
SWIDTH 360 0
DWIDTH 12 0
BBX 7 19 2 0
BITMAP
0E
3E
7E
FE
EE
4E
0E
0E
0E
0E
0E
0E
0E
0E
0E
0E
0E
0E
0E
ENDCHAR
STARTCHAR 0032
ENCODING 50
SWIDTH 540 0
DWIDTH 18 0
BBX 14 19 2 0
BITMAP
0F80
3FE0
7FF0
F078
E038
4038
0038
0038
0070
00F0
01E0
03C0
0780
0F00
1E00
7C00
FFFC
FFFC
FFFC
ENDCHAR
STARTCHAR 0033
ENCODING 51
SWIDTH 540 0
DWIDTH 18 0
BBX 15 26 1 -7
BITMAP
0F80
3FE0
7FE0
7070
2070
0070
0070
0070
00E0
03C0
0FE0
0FF8
083C
001C
000E
000E
000E
000E
000E
000E
001C
003C
60F8
FFF0
7FC0
0E00
ENDCHAR
STARTCHAR 0034
ENCODING 52
SWIDTH 630 0
DWIDTH 21 0
BBX 19 26 1 -7
BITMAP
000600
000E00
001E00
001E00
003E00
007E00
00EE00
00EE00
01CE00
038E00
070E00
070E00
0E0E00
1C0E00
380E00
380E00
7FFFE0
FFFFE0
FFFFE0
000E00
000E00
000E00
000E00
000E00
000E00
000E00
ENDCHAR
STARTCHAR 0035
ENCODING 53
SWIDTH 600 0
DWIDTH 20 0
BBX 15 26 3 -7
BITMAP
FFF8
FFF8
FFF8
E000
E000
E000
E000
E000
E780
FFF0
FFF8
E03C
001C
001C
000E
000E
000E
000E
000E
001C
001C
C03C
E078
FFF0
3FE0
0700
ENDCHAR
STARTCHAR 0036
ENCODING 54
SWIDTH 600 0
DWIDTH 20 0
BBX 16 26 2 -1
BITMAP
03F8
07FE
0F1E
1C04
3800
3800
7000
7000
6000
E040
E3F8
E7FE
EE0E
FC07
F807
F007
F007
E007
6007
7007
7007
380E
3C1E
1FFC
0FF8
01E0
ENDCHAR
STARTCHAR 0037
ENCODING 55
SWIDTH 510 0
DWIDTH 17 0
BBX 16 25 0 -6
BITMAP
7FFF
7FFF
7FFF
000E
000E
001C
001C
0038
0038
0070
0070
00E0
01E0
01C0
0380
0380
0700
0F00
0E00
1E00
1C00
3800
7800
F000
6000
ENDCHAR
STARTCHAR 0038
ENCODING 56
SWIDTH 570 0
DWIDTH 19 0
BBX 15 26 2 -1
BITMAP
1FF0
3FF8
781C
701C
700E
700E
700C
701C
3838
1C78
1EF0
07C0
07C0
1FE0
3C78
383C
701C
E00E
E00E
E00E
E00E
E00E
781E
3FFC
1FF0
0180
ENDCHAR
STARTCHAR 0039
ENCODING 57
SWIDTH 600 0
DWIDTH 20 0
BBX 16 26 2 -7
BITMAP
0180
0FF0
3FF8
383C
701E
700E
E006
E007
E007
E007
E00F
E01F
703F
78F7
3FE7
1FC7
0007
0006
000E
000E
001C
003C
2078
7FF0
3FE0
0F80
ENDCHAR
STARTCHAR 003A
ENCODING 58
SWIDTH 270 0
DWIDTH 9 0
BBX 4 16 2 0
BITMAP
60
F0
F0
70
00
00
00
00
00
00
00
00
60
F0
F0
70
ENDCHAR
STARTCHAR 003B
ENCODING 59
SWIDTH 270 0
DWIDTH 9 0
BBX 4 21 2 -5
BITMAP
60
F0
F0
70
00
00
00
00
00
00
00
00
00
70
F0
70
30
30
30
60
60
ENDCHAR
STARTCHAR 003C
ENCODING 60
SWIDTH 690 0
DWIDTH 23 0
BBX 19 19 2 0
BITMAP
000020
0000E0
0007E0
001F00
007C00
01F000
0FC000
3F0000
F80000
E00000
F80000
3F0000
0FC000
01F000
007C00
001F00
0007E0
0000E0
000020
ENDCHAR
STARTCHAR 003D
ENCODING 61
SWIDTH 660 0
DWIDTH 22 0
BBX 18 7 2 6
BITMAP
FFFFC0
FFFFC0
000000
000000
000000
FFFFC0
FFFFC0
ENDCHAR
STARTCHAR 003E
ENCODING 62
SWIDTH 690 0
DWIDTH 23 0
BBX 19 19 2 0
BITMAP
800000
F00000
7C0000
1F0000
07C000
01F800
007E00
000F80
0003E0
0000E0
0003E0
000F80
007E00
01F800
07C000
1F0000
7C0000
F00000
800000
ENDCHAR
STARTCHAR 003F
ENCODING 63
SWIDTH 510 0
DWIDTH 17 0
BBX 14 27 2 0
BITMAP
1FE0
3FF0
7878
E038
C018
001C
0018
0038
0038
0070
00F0
01E0
03C0
0780
0F00
1E00
1C00
1C00
1C00
0E00
0600
0000
0000
0600
0700
0F00
0700
ENDCHAR
STARTCHAR 0040
ENCODING 64
SWIDTH 1050 0
DWIDTH 35 0
BBX 32 33 2 -7
BITMAP
0001C000
001FFE00
007FFF80
01F80FC0
03E001E0
078000F0
0F000078
1E03E038
3C07FB9C
381E3B0E
701C0F0E
70380F0E
60700706
E0600606
E0E00E07
E0E00E06
C0C00E06
C0C00C0E
E1C01C0E
E1C03C1C
E0C07C1C
E0C0F878
70E3D9F0
707F9FC0
383E1F00
3C000000
1E000030
0F0000F8
07C001F0
03F807C0
00FFFF80
003FFE00
0001F000
ENDCHAR
STARTCHAR 0041
ENCODING 65
SWIDTH 720 0
DWIDTH 24 0
BBX 22 26 1 0
BITMAP
007800
007800
00F800
00FC00
00FC00
01DC00
01DE00
01CE00
038E00
038700
078700
070780
070380
0F0380
0E03C0
0FFFC0
1FFFC0
1FFFE0
1C00E0
3800E0
380070
780070
700078
700038
E00038
E0003C
ENDCHAR
STARTCHAR 0042
ENCODING 66
SWIDTH 630 0
DWIDTH 21 0
BBX 16 26 3 0
BITMAP
3FC0
FFF0
FFF8
E01C
E00E
E00E
E00E
E00E
E00E
E00E
E01C
E0FC
FFF8
FFFC
E07E
E00F
E007
E007
E007
E007
E007
E007
E00E
FFFE
FFFC
FFF0
ENDCHAR
STARTCHAR 0043
ENCODING 67
SWIDTH 630 0
DWIDTH 21 0
BBX 18 27 2 -1
BITMAP
01FC00
07FF00
0FFF80
1E03C0
3C0180
380000
780000
700000
700000
E00000
E00000
E00000
E00000
E00000
E00000
E00000
E00000
E00000
F00000
700000
780000
380000
3C00C0
1F03C0
0FFF80
07FF00
00FC00
ENDCHAR
STARTCHAR 0044
ENCODING 68
SWIDTH 720 0
DWIDTH 24 0
BBX 19 26 3 0
BITMAP
3FC000
FFF800
FFFE00
E01F00
E00780
E00380
E001C0
E001C0
E001C0
E001C0
E000E0
E000E0
E000E0
E000E0
E000E0
E000E0
E001C0
E001C0
E001C0
E003C0
E00380
E00700
E01F00
FFFE00
FFF800
FF8000
ENDCHAR
STARTCHAR 0045
ENCODING 69
SWIDTH 570 0
DWIDTH 19 0
BBX 14 26 3 0
BITMAP
FFFC
FFFC
FFFC
E000
E000
E000
E000
E000
E000
E000
E000
FFF0
FFF0
FFF0
E000
E000
E000
E000
E000
E000
E000
E000
E000
FFFC
FFFC
FFFC
ENDCHAR
STARTCHAR 0046
ENCODING 70
SWIDTH 540 0
DWIDTH 18 0
BBX 14 26 3 0
BITMAP
FFFC
FFFC
FFFC
E000
E000
E000
E000
E000
E000
E000
E000
FFF0
FFF0
FFF0
E000
E000
E000
E000
E000
E000
E000
E000
E000
E000
E000
E000
ENDCHAR
STARTCHAR 0047
ENCODING 71
SWIDTH 750 0
DWIDTH 25 0
BBX 20 26 2 0
BITMAP
00FE00
03FF80
0FE7E0
1F00F0
1E0060
3C0000
780000
700000
700000
F00000
E00000
E00000
E00000
E01FF0
E01FF0
E01FF0
E00070
E00070
700070
700070
780070
3C0070
1E01F0
0FFFE0
07FFC0
00FE00
ENDCHAR
STARTCHAR 0048
ENCODING 72
SWIDTH 750 0
DWIDTH 25 0
BBX 19 26 3 0
BITMAP
E000E0
E000E0
E000E0
E000E0
E000E0
E000E0
E000E0
E000E0
E000E0
E000E0
E000E0
FFFFE0
FFFFE0
FFFFE0
E000E0
E000E0
E000E0
E000E0
E000E0
E000E0
E000E0
E000E0
E000E0
E000E0
E000E0
E000E0
ENDCHAR
STARTCHAR 0049
ENCODING 73
SWIDTH 270 0
DWIDTH 9 0
BBX 3 26 3 0
BITMAP
E0
E0
E0
E0
E0
E0
E0
E0
E0
E0
E0
E0
E0
E0
E0
E0
E0
E0
E0
E0
E0
E0
E0
E0
E0
E0
ENDCHAR
STARTCHAR 004A
ENCODING 74
SWIDTH 270 0
DWIDTH 9 0
BBX 7 35 0 -9
BITMAP
0E
0E
0E
0E
0E
0E
0E
0E
0E
0E
0E
0E
0E
0E
0E
0E
0E
0E
0E
0E
0E
0E
0E
0E
0E
0E
0E
0E
0E
1C
1C
78
F8
F0
C0
ENDCHAR
STARTCHAR 004B
ENCODING 75
SWIDTH 600 0
DWIDTH 20 0
BBX 17 26 3 0
BITMAP
E01E00
E03C00
E03800
E07800
E0F000
E1E000
E1C000
E38000
E78000
EF0000
FE0000
FC0000
FE0000
FF8000
FFC000
E1C000
E0E000
E0E000
E07000
E07800
E03800
E01C00
E01C00
E00E00
E00F00
E00780
ENDCHAR
STARTCHAR 004C
ENCODING 76
SWIDTH 570 0
DWIDTH 19 0
BBX 14 26 3 0
BITMAP
E000
E000
E000
E000
E000
E000
E000
E000
E000
E000
E000
E000
E000
E000
E000
E000
E000
E000
E000
E000
E000
E000
E000
FFFC
FFFC
FFFC
ENDCHAR
STARTCHAR 004D
ENCODING 77
SWIDTH 840 0
DWIDTH 28 0
BBX 22 26 3 0
BITMAP
E0001C
E0001C
F0001C
F0003C
F0003C
F8007C
F8007C
FC007C
FC00EC
FC00EC
EE00CC
EE01CC
E601CC
E7038C
E7038C
E3838C
E3870C
E3870C
E1C60C
E1CE0C
E0CE0C
E0FC0C
E0FC0C
E07C0C
E0780C
E0380C
ENDCHAR
STARTCHAR 004E
ENCODING 78
SWIDTH 720 0
DWIDTH 24 0
BBX 18 26 3 0
BITMAP
E001C0
F001C0
F001C0
F801C0
F801C0
FC01C0
EE01C0
EE01C0
E701C0
E701C0
E381C0
E1C1C0
E1C1C0
E0E1C0
E0F1C0
E071C0
E039C0
E039C0
E01DC0
E01FC0
E00FC0
E007C0
E007C0
E003C0
E003C0
E001C0
ENDCHAR
STARTCHAR 004F
ENCODING 79
SWIDTH 750 0
DWIDTH 25 0
BBX 21 26 2 0
BITMAP
01FC00
07FF00
0F8FC0
1E03C0
3C00E0
7800F0
700070
700070
E00038
E00038
E00038
E00038
E00038
E00038
E00038
E00038
E00038
E00038
700078
700070
7800F0
3800E0
3E01E0
1F8FC0
07FF80
03FE00
ENDCHAR
STARTCHAR 0050
ENCODING 80
SWIDTH 630 0
DWIDTH 21 0
BBX 16 26 3 0
BITMAP
E7E0
FFF8
FEFC
F01E
E00E
E00F
E007
E007
E007
E007
E007
E007
E00E
E00E
F01E
FEFC
FFF8
EFF0
E000
E000
E000
E000
E000
E000
E000
E000
ENDCHAR
STARTCHAR 0051
ENCODING 81
SWIDTH 750 0
DWIDTH 25 0
BBX 21 31 2 -5
BITMAP
01FC00
07FF00
0F8FC0
1E03C0
3C00E0
7800F0
700070
700070
E00038
E00038
E00038
E00038
E00038
E00038
E00038
E00038
E00038
E00038
F00038
700070
700070
3800F0
3C01E0
1E03C0
0FFF80
07FF00
00F800
007800
003FE0
001FE0
0003E0
ENDCHAR
STARTCHAR 0052
ENCODING 82
SWIDTH 660 0
DWIDTH 22 0
BBX 18 26 3 0
BITMAP
E7E000
FFF800
FFFC00
F01E00
E00E00
E00E00
E00600
E00600
E00E00
E00E00
E00E00
E01E00
E07C00
FFF800
FFE000
E3C000
E1E000
E0F000
E07800
E03800
E01C00
E01E00
E00E00
E00700
E00780
E003C0
ENDCHAR
STARTCHAR 0053
ENCODING 83
SWIDTH 630 0
DWIDTH 21 0
BBX 17 27 2 -1
BITMAP
07F000
1FFC00
3FFE00
380E00
700400
700000
700000
700000
700000
780000
3C0000
3F8000
0FF000
03FC00
007E00
000F00
000700
000380
000380
000380
400380
E00380
F00700
7C0F00
3FFE00
0FFC00
03E000
ENDCHAR
STARTCHAR 0054
ENCODING 84
SWIDTH 570 0
DWIDTH 19 0
BBX 18 26 0 0
BITMAP
FFFFC0
FFFFC0
FFFFC0
00E000
00E000
00E000
00E000
00E000
00E000
00E000
00E000
00E000
00E000
00E000
00E000
00E000
00E000
00E000
00E000
00E000
00E000
00E000
00E000
00E000
00E000
00E000
ENDCHAR
STARTCHAR 0055
ENCODING 85
SWIDTH 690 0
DWIDTH 23 0
BBX 17 27 3 -1
BITMAP
E00380
E00380
E00380
E00380
E00380
E00380
E00380
E00380
E00380
E00380
E00380
E00380
E00380
E00380
E00380
E00380
E00380
E00380
E00380
E00380
E00380
E00700
700F00
7C1E00
3FFE00
0FF800
008000
ENDCHAR
STARTCHAR 0056
ENCODING 86
SWIDTH 690 0
DWIDTH 23 0
BBX 21 26 1 0
BITMAP
E00038
E00078
700070
700070
7000E0
3800E0
3800E0
3801C0
1C01C0
1C01C0
1E0380
0E0380
0E0380
0F0700
070700
070700
038E00
038E00
039E00
01DC00
01DC00
01F800
00F800
00F800
00F000
007000
ENDCHAR
STARTCHAR 0057
ENCODING 87
SWIDTH 990 0
DWIDTH 33 0
BBX 31 26 1 0
BITMAP
E003800E
E007801C
6007801C
7007C01C
7007C038
700FC038
380FC038
380EE038
381CE070
381CE070
1C1C7070
1C1C7060
1C3870E0
0C3870E0
0E3838E0
0E3038C0
0E7039C0
067019C0
07701DC0
07601D80
03E01F80
03E00F80
03C00F00
03C00F00
01C00700
01C00700
ENDCHAR
STARTCHAR 0058
ENCODING 88
SWIDTH 660 0
DWIDTH 22 0
BBX 20 26 1 0
BITMAP
F000F0
7001E0
7801C0
3C03C0
1C0780
1E0700
0F0F00
070E00
079E00
03BC00
03F800
01F800
00F000
00F000
01F800
01F800
03FC00
079E00
070E00
0F0F00
1E0700
1C0780
3C03C0
3801C0
7801E0
F000F0
ENDCHAR
STARTCHAR 0059
ENCODING 89
SWIDTH 630 0
DWIDTH 21 0
BBX 19 26 1 0
BITMAP
E000E0
F001C0
7003C0
780380
3C0700
1C0F00
1E0E00
0E1E00
071C00
07B800
03F800
01F000
01E000
00E000
00E000
00E000
00E000
00E000
00E000
00E000
00E000
00E000
00E000
00E000
00E000
00E000
ENDCHAR
STARTCHAR 005A
ENCODING 90
SWIDTH 600 0
DWIDTH 20 0
BBX 17 26 2 0
BITMAP
FFFF00
FFFF00
FFFF00
000F00
000E00
001C00
003C00
003800
007800
00F000
00E000
01E000
03C000
038000
078000
070000
0E0000
1E0000
1C0000
3C0000
780000
700000
F00000
FFFF80
FFFF80
FFFF80
ENDCHAR
STARTCHAR 005B
ENCODING 91
SWIDTH 360 0
DWIDTH 12 0
BBX 7 35 3 -9
BITMAP
FE
FE
E0
E0
E0
E0
E0
E0
E0
E0
E0
E0
E0
E0
E0
E0
E0
E0
E0
E0
E0
E0
E0
E0
E0
E0
E0
E0
E0
E0
E0
E0
E0
FE
FE
ENDCHAR
STARTCHAR 005C
ENCODING 92
SWIDTH 360 0
DWIDTH 12 0
BBX 10 26 1 0
BITMAP
E000
E000
6000
7000
7000
7000
3000
3800
3800
1800
1C00
1C00
1C00
0E00
0E00
0E00
0600
0700
0700
0300
0380
0380
0380
0180
01C0
01C0
ENDCHAR
STARTCHAR 005D
ENCODING 93
SWIDTH 360 0
DWIDTH 12 0
BBX 7 35 2 -9
BITMAP
FE
FE
0E
0E
0E
0E
0E
0E
0E
0E
0E
0E
0E
0E
0E
0E
0E
0E
0E
0E
0E
0E
0E
0E
0E
0E
0E
0E
0E
0E
0E
0E
0E
FE
FE
ENDCHAR
STARTCHAR 005E
ENCODING 94
SWIDTH 660 0
DWIDTH 22 0
BBX 18 18 2 0
BITMAP
01C000
01E000
03E000
037000
033000
073800
061800
0E1C00
0C0C00
1C0C00
180600
380600
300700
700300
600380
E00180
C001C0
C000C0
ENDCHAR
STARTCHAR 005F
ENCODING 95
SWIDTH 660 0
DWIDTH 22 0
BBX 18 2 2 -2
BITMAP
FFFFC0
FFFFC0
ENDCHAR
STARTCHAR 0060
ENCODING 96
SWIDTH 330 0
DWIDTH 11 0
BBX 7 5 2 20
BITMAP
F0
38
1C
0C
06
ENDCHAR
STARTCHAR 0061
ENCODING 97
SWIDTH 570 0
DWIDTH 19 0
BBX 15 19 2 0
BITMAP
03E0
1FF8
7FF8
781C
601C
001C
001C
001C
07FC
3FFC
7E1C
F01C
E01C
E01C
E03C
E07C
E0FC
7FCE
3F0E
ENDCHAR
STARTCHAR 0062
ENCODING 98
SWIDTH 630 0
DWIDTH 21 0
BBX 16 28 3 -1
BITMAP
E000
E000
E000
E000
E000
E000
E000
E000
E1E0
EFF8
FFFC
FC1C
F00E
E00E
E007
E007
E007
E007
E007
E007
E007
E007
E00E
F00E
FC3C
FFFC
EFF0
01C0
ENDCHAR
STARTCHAR 0063
ENCODING 99
SWIDTH 510 0
DWIDTH 17 0
BBX 13 20 2 -1
BITMAP
0300
0FE0
1FF8
3C38
7010
7000
E000
E000
E000
E000
E000
E000
E000
E000
F000
7010
3838
3FF8
0FF0
0380
ENDCHAR
STARTCHAR 0064
ENCODING 100
SWIDTH 630 0
DWIDTH 21 0
BBX 18 28 2 -1
BITMAP
000700
000700
000700
000700
000700
000700
000700
000700
038700
1FE700
3FFF00
7C3F00
701F00
F00700
E00700
E00700
E00700
E00700
E00700
E00700
E00700
E00F00
E00F00
701F00
787F00
3FF380
1FE3C0
030080
ENDCHAR
STARTCHAR 0065
ENCODING 101
SWIDTH 570 0
DWIDTH 19 0
BBX 15 18 2 -1
BITMAP
0FF0
1FF8
3C3C
701C
700E
E00E
FFFE
FFFE
E000
E000
E000
E000
E000
6004
700E
383C
1FF8
0FF0
ENDCHAR
STARTCHAR 0066
ENCODING 102
SWIDTH 390 0
DWIDTH 13 0
BBX 13 27 1 0
BITMAP
0FE0
1FF8
1C38
1800
3800
3800
3800
3800
3800
FFE0
FFE0
3800
3800
3800
3800
3800
3800
3800
3800
3800
3800
3800
3800
3800
3800
3800
3800
ENDCHAR
STARTCHAR 0067
ENCODING 103
SWIDTH 600 0
DWIDTH 20 0
BBX 17 30 2 -9
BITMAP
000300
001F80
03FF80
1FF800
3E7C00
781C00
700E00
600E00
600E00
700E00
700E00
381C00
3FF800
1FE000
380000
700000
700000
7FF000
3FFE00
38FF00
700780
E00380
E00180
E00380
E00380
E00780
700F00
7EFE00
1FFC00
07F000
ENDCHAR
STARTCHAR 0068
ENCODING 104
SWIDTH 600 0
DWIDTH 20 0
BBX 15 27 3 0
BITMAP
E000
E000
E000
E000
E000
E000
E000
E000
E070
E3FC
E7FC
FF0E
FC0E
F80E
E00E
E00E
E00E
E00E
E00E
E00E
E00E
E00E
E00E
E00E
E00E
E00E
E00E
ENDCHAR
STARTCHAR 0069
ENCODING 105
SWIDTH 270 0
DWIDTH 9 0
BBX 3 25 3 0
BITMAP
E0
E0
E0
00
00
00
00
E0
E0
E0
E0
E0
E0
E0
E0
E0
E0
E0
E0
E0
E0
E0
E0
E0
E0
ENDCHAR
STARTCHAR 006A
ENCODING 106
SWIDTH 210 0
DWIDTH 7 0
BBX 6 34 -1 -9
BITMAP
38
3C
38
00
00
00
00
38
38
38
38
38
38
38
38
38
38
38
38
38
38
38
38
38
38
38
38
38
38
38
70
F0
E0
C0
ENDCHAR
STARTCHAR 006B
ENCODING 107
SWIDTH 540 0
DWIDTH 18 0
BBX 15 27 3 0
BITMAP
E000
E000
E000
E000
E000
E000
E000
E000
E000
E070
E070
E0E0
E3C0
E780
EE00
FC00
FC00
FE00
EF00
E780
E3C0
E1C0
E0E0
E070
E038
E03C
E01E
ENDCHAR
STARTCHAR 006C
ENCODING 108
SWIDTH 270 0
DWIDTH 9 0
BBX 5 27 3 0
BITMAP
E0
E0
E0
E0
E0
E0
E0
E0
E0
E0
E0
E0
E0
E0
E0
E0
E0
E0
E0
E0
E0
E0
E0
E0
F0
78
38
ENDCHAR
STARTCHAR 006D
ENCODING 109
SWIDTH 900 0
DWIDTH 30 0
BBX 25 19 3 0
BITMAP
00E01C00
E7F87F00
EFF9FF00
FE3FE380
FC1F8380
F01E0380
E01C0380
E01C0380
E01C0380
E01C0380
E01C0380
E01C0380
E01C0380
E01C0380
E01C0380
E01C0380
E01C0380
E01C0380
E01C0380
ENDCHAR
STARTCHAR 006E
ENCODING 110
SWIDTH 600 0
DWIDTH 20 0
BBX 15 19 3 0
BITMAP
0070
E3FC
E7FC
FF0E
FC0E
F80E
E00E
E00E
E00E
E00E
E00E
E00E
E00E
E00E
E00E
E00E
E00E
E00E
E00E
ENDCHAR
STARTCHAR 006F
ENCODING 111
SWIDTH 600 0
DWIDTH 20 0
BBX 16 19 2 0
BITMAP
07E0
1FF0
3E78
781C
700E
E00E
E006
E007
E007
E007
E007
E007
E006
E00E
700E
701C
3C3C
1FF8
0FE0
ENDCHAR
STARTCHAR 0070
ENCODING 112
SWIDTH 630 0
DWIDTH 21 0
BBX 16 28 3 -9
BITMAP
00E0
E7F8
EFFC
FE1C
F80E
F00E
E007
E007
E007
E007
E007
E007
E007
E006
E00E
F01E
FC3C
FFFC
EFF0
E1C0
E000
E000
E000
E000
E000
E000
E000
E000
ENDCHAR
STARTCHAR 0071
ENCODING 113
SWIDTH 630 0
DWIDTH 21 0
BBX 16 28 2 -9
BITMAP
0380
1FF7
3FFF
783F
701F
F007
E007
E007
E007
E007
E007
E007
E007
E00F
E00F
701F
787F
3FF7
1FC7
0707
0007
0007
0007
0007
0007
0007
0007
0007
ENDCHAR
STARTCHAR 0072
ENCODING 114
SWIDTH 450 0
DWIDTH 15 0
BBX 11 19 3 0
BITMAP
0300
EFE0
FFE0
FC40
F800
F000
E000
E000
E000
E000
E000
E000
E000
E000
E000
E000
E000
E000
E000
ENDCHAR
STARTCHAR 0073
ENCODING 115
SWIDTH 510 0
DWIDTH 17 0
BBX 13 19 2 0
BITMAP
0F80
3FE0
79F0
7020
E000
E000
7000
7800
3F00
1FE0
03F0
0078
0038
0038
4038
E038
F070
7FF0
1FC0
ENDCHAR
STARTCHAR 0074
ENCODING 116
SWIDTH 390 0
DWIDTH 13 0
BBX 12 25 1 0
BITMAP
1C00
1C00
1C00
1C00
1C00
1C00
1C00
FFC0
FFC0
1C00
1C00
1C00
1C00
1C00
1C00
1C00
1C00
1C00
1C00
1C00
1C00
1C00
1C60
1FF0
0FC0
ENDCHAR
STARTCHAR 0075
ENCODING 117
SWIDTH 600 0
DWIDTH 20 0
BBX 15 18 2 0
BITMAP
E006
E006
E006
E006
E006
E006
E006
E006
E006
E006
E006
E006
E01E
E03E
E07E
73F6
7FC6
3F06
ENDCHAR
STARTCHAR 0076
ENCODING 118
SWIDTH 510 0
DWIDTH 17 0
BBX 16 18 1 0
BITMAP
E007
E00E
F00C
701C
701C
3838
3838
3830
1C70
1C70
0C60
0EE0
0EE0
06C0
07C0
07C0
0380
0380
ENDCHAR
STARTCHAR 0077
ENCODING 119
SWIDTH 780 0
DWIDTH 26 0
BBX 24 18 1 0
BITMAP
E03807
E03806
703C0E
703C0E
707C0C
706E1C
386E1C
38E618
38E638
18C738
1CC330
1DC330
1D83F0
0F81F0
0F81E0
0F01E0
0701E0
0700C0
ENDCHAR
STARTCHAR 0078
ENCODING 120
SWIDTH 570 0
DWIDTH 19 0
BBX 16 18 2 0
BITMAP
F00F
701E
381C
3C38
1C78
0E70
07E0
07C0
03C0
03C0
07E0
0FE0
0E70
1C78
383C
781C
F00E
E00F
ENDCHAR
STARTCHAR 0079
ENCODING 121
SWIDTH 510 0
DWIDTH 17 0
BBX 17 27 0 -9
BITMAP
700380
700700
700700
380E00
380E00
1C1C00
1C1C00
1C1C00
0E3800
0E3800
077000
077000
07E000
03E000
03E000
01C000
01C000
038000
038000
038000
070000
070000
0E0000
1E0000
7C0000
F80000
E00000
ENDCHAR
STARTCHAR 007A
ENCODING 122
SWIDTH 510 0
DWIDTH 17 0
BBX 14 18 2 0
BITMAP
FFF8
FFF8
0038
0070
00E0
01E0
01C0
0380
0700
0F00
0E00
1C00
3800
7800
F000
E004
FFFC
FFFC
ENDCHAR
STARTCHAR 007B
ENCODING 123
SWIDTH 480 0
DWIDTH 16 0
BBX 10 37 3 -9
BITMAP
0700
0FC0
1FC0
1C00
1C00
1C00
1C00
1C00
1C00
1C00
1C00
1C00
1C00
1C00
1C00
1C00
1800
3800
F000
F000
3800
1C00
1C00
1C00
1C00
1C00
1C00
1C00
1C00
1C00
1C00
1C00
1C00
1C00
1FC0
0FC0
0700
ENDCHAR
STARTCHAR 007C
ENCODING 124
SWIDTH 240 0
DWIDTH 8 0
BBX 2 37 3 -9
BITMAP
C0
C0
C0
C0
C0
C0
C0
C0
C0
C0
C0
C0
C0
C0
C0
C0
C0
C0
C0
C0
C0
C0
C0
C0
C0
C0
C0
C0
C0
C0
C0
C0
C0
C0
C0
C0
C0
ENDCHAR
STARTCHAR 007D
ENCODING 125
SWIDTH 480 0
DWIDTH 16 0
BBX 11 37 2 -9
BITMAP
3800
FE00
7E00
4700
0700
0700
0700
0700
0700
0700
0700
0700
0700
0700
0700
0700
0700
0380
01E0
03E0
0700
0700
0700
0700
0700
0700
0700
0700
0700
0700
0700
0700
0700
0700
7E00
FE00
3C00
ENDCHAR
STARTCHAR 007E
ENCODING 126
SWIDTH 660 0
DWIDTH 22 0
BBX 18 5 2 9
BITMAP
0E0080
7FF780
FFFFC0
C0FF00
003E00
ENDCHAR
STARTCHAR 00A1
ENCODING 161
SWIDTH 300 0
DWIDTH 10 0
BBX 4 28 3 -9
BITMAP
60
F0
F0
F0
00
00
00
60
60
60
60
60
60
60
E0
E0
E0
E0
E0
E0
E0
E0
E0
E0
E0
F0
F0
F0
ENDCHAR
STARTCHAR 00A2
ENCODING 162
SWIDTH 510 0
DWIDTH 17 0
BBX 13 25 2 -3
BITMAP
0060
0060
0060
03C0
0FE0
1FF8
3CF8
7190
7180
E180
E180
E300
E300
E300
E200
E600
E600
E600
7410
7C38
3FF8
1FF0
1B80
1800
1800
ENDCHAR
STARTCHAR 00A3
ENCODING 163
SWIDTH 600 0
DWIDTH 20 0
BBX 17 28 1 0
BITMAP
001C00
007F00
00FF80
00E380
01C100
01C000
01C000
01C000
018000
038000
038000
038000
038000
030000
070000
070000
070000
3FF800
3FF800
0E0000
0E0000
0E0000
0E0000
0C0000
3F0100
7FC780
F3FF00
C0FE00
ENDCHAR
STARTCHAR 00A5
ENCODING 165
SWIDTH 630 0
DWIDTH 21 0
BBX 19 26 1 0
BITMAP
E000E0
F001C0
7003C0
780380
3C0700
1C0F00
1E0E00
0E1E00
071C00
07B800
03F800
03F000
01E000
3FFF80
3FFF80
00E000
00E000
00E000
3FFF80
3FFF80
00E000
00E000
00E000
00E000
00E000
00E000
ENDCHAR
STARTCHAR 00A8
ENCODING 168
SWIDTH 420 0
DWIDTH 14 0
BBX 10 3 2 21
BITMAP
61C0
F1C0
E1C0
ENDCHAR
STARTCHAR 00A9
ENCODING 169
SWIDTH 870 0
DWIDTH 29 0
BBX 25 26 2 0
BITMAP
007F0000
01FFC000
0780F000
0E003800
1C001C00
38000600
301E0700
607F0300
60E38180
C0C10180
C1C00180
C1800180
C1800080
C1800080
C1800180
C1C00180
C0C00180
60E38180
607F8300
703E0700
38000600
1C000C00
0E003800
0780F000
01FFE000
007F0000
ENDCHAR
STARTCHAR 00AE
ENCODING 174
SWIDTH 870 0
DWIDTH 29 0
BBX 25 26 2 0
BITMAP
007F0000
01FFC000
0780F000
0E003800
1C000C00
38000600
70FE0700
60FF0300
60C18180
C0C18180
C0C18180
C0C18180
C0C70080
C0FF0080
C0DC0180
C0C60180
C0C30180
60C38180
60C1C300
70C0E700
38000600
1C000C00
0E003800
0780F000
01FFE000
007F0000
ENDCHAR
STARTCHAR 00B4
ENCODING 180
SWIDTH 330 0
DWIDTH 11 0
BBX 7 5 2 20
BITMAP
0E
1C
38
70
E0
ENDCHAR
STARTCHAR 00B6
ENCODING 182
SWIDTH 720 0
DWIDTH 24 0
BBX 20 34 2 -8
BITMAP
03FFF0
0FFFF0
3FF980
7FF980
7FF980
FFF980
FFF980
FFF980
FFF980
FFF980
FFF980
FFF980
FFF980
FFF980
7FF980
7FF980
3FF980
0F9980
001980
001980
001980
001980
001980
001980
001980
001980
001980
001980
001980
001980
001980
001980
001980
001980
ENDCHAR
STARTCHAR 00B7
ENCODING 183
SWIDTH 240 0
DWIDTH 8 0
BBX 4 4 2 7
BITMAP
60
F0
F0
60
ENDCHAR
STARTCHAR 00B8
ENCODING 184
SWIDTH 330 0
DWIDTH 11 0
BBX 7 7 2 -7
BITMAP
18
18
3C
0E
0E
FC
78
ENDCHAR
STARTCHAR 00BF
ENCODING 191
SWIDTH 510 0
DWIDTH 17 0
BBX 14 28 1 -9
BITMAP
0100
0380
0380
0380
0000
0000
0080
03C0
01C0
00C0
00E0
00C0
01C0
0380
0780
1E00
1C00
3800
7800
7000
E000
E000
E00C
E01C
703C
7CF8
3FF0
0FC0
ENDCHAR
STARTCHAR 00C0
ENCODING 192
SWIDTH 720 0
DWIDTH 24 0
BBX 22 32 1 0
BITMAP
0F0000
038000
01C000
00C000
006000
000000
007800
007800
00F800
00FC00
00FC00
01DC00
01DE00
01CE00
038E00
038700
078700
070780
070380
0F0380
0E03C0
0FFFC0
1FFFC0
1FFFE0
1C00E0
3800E0
380070
780070
700078
700038
E00038
E0003C
ENDCHAR
STARTCHAR 00C1
ENCODING 193
SWIDTH 720 0
DWIDTH 24 0
BBX 22 33 1 0
BITMAP
0003C0
000780
000E00
000C00
001800
002000
000000
007800
007800
00F800
00FC00
00FC00
01DC00
01DE00
01CE00
038E00
038700
078700
070780
070380
0F0380
0E03C0
0FFFC0
1FFFC0
1FFFE0
1C00E0
3800E0
380070
780070
700078
700038
E00038
E0003C
ENDCHAR
STARTCHAR 00C2
ENCODING 194
SWIDTH 720 0
DWIDTH 24 0
BBX 22 33 1 0
BITMAP
003000
007800
00DC00
038E00
070700
000080
000000
007800
007800
00F800
00FC00
00FC00
01DC00
01DE00
01CE00
038E00
038700
078700
070780
070380
0F0380
0E03C0
0FFFC0
1FFFC0
1FFFE0
1C00E0
3800E0
380070
780070
700078
700038
E00038
E0003C
ENDCHAR
STARTCHAR 00C3
ENCODING 195
SWIDTH 720 0
DWIDTH 24 0
BBX 22 32 1 0
BITMAP
010000
07F080
0FFFC0
001F00
000000
000000
007800
007800
00F800
00FC00
00FC00
01DC00
01DE00
01CE00
038E00
038700
078700
070780
070380
0F0380
0E03C0
0FFFC0
1FFFC0
1FFFE0
1C00E0
3800E0
380070
780070
700078
700038
E00038
E0003C
ENDCHAR
STARTCHAR 00C4
ENCODING 196
SWIDTH 720 0
DWIDTH 24 0
BBX 22 31 1 0
BITMAP
038700
038F00
038700
000000
000000
007800
007800
00F800
00FC00
00FC00
01DC00
01DE00
01CE00
038E00
038700
078700
070780
070380
0F0380
0E03C0
0FFFC0
1FFFC0
1FFFE0
1C00E0
3800E0
380070
780070
700078
700038
E00038
E0003C
ENDCHAR
STARTCHAR 00C5
ENCODING 197
SWIDTH 720 0
DWIDTH 24 0
BBX 22 34 1 0
BITMAP
007000
00F800
008C00
008C00
00CC00
007800
000000
000000
007800
007800
00F800
00FC00
00FC00
01DC00
01DE00
01CE00
038E00
038700
078700
070780
070380
0F0380
0E03C0
0FFFC0
1FFFC0
1FFFE0
1C00E0
3800E0
380070
780070
700078
700038
E00038
E0003C
ENDCHAR
STARTCHAR 00C6
ENCODING 198
SWIDTH 990 0
DWIDTH 33 0
BBX 30 26 1 0
BITMAP
0003FFFC
0007FFFC
0007FFFC
000EE000
000EE000
001CE000
003CE000
0038E000
0078E000
0070E000
00F0E000
00E0FFF0
01E0FFF0
01C0FFF0
03C0E000
03FFE000
07FFE000
0FFFE000
0E00E000
1E00E000
1C00E000
3C00E000
3800E000
7000E00C
7000FFFC
E000FFFC
ENDCHAR
STARTCHAR 00C7
ENCODING 199
SWIDTH 630 0
DWIDTH 21 0
BBX 18 33 2 -7
BITMAP
01FC00
07FF00
0FFF80
1E03C0
3C0180
380000
780000
700000
700000
E00000
E00000
E00000
E00000
E00000
E00000
E00000
E00000
E00000
700000
700000
780000
380000
3C00C0
1F03C0
0FFF80
07FF00
00FC00
00C000
00E000
003000
003000
03F000
01E000
ENDCHAR
STARTCHAR 00C8
ENCODING 200
SWIDTH 570 0
DWIDTH 19 0
BBX 14 32 3 0
BITMAP
F000
3800
1C00
0C00
0600
0000
FFFC
FFFC
FFFC
E000
E000
E000
E000
E000
E000
E000
E000
FFF0
FFF0
FFF0
E000
E000
E000
E000
E000
E000
E000
E000
E000
FFFC
FFFC
FFFC
ENDCHAR
STARTCHAR 00C9
ENCODING 201
SWIDTH 570 0
DWIDTH 19 0
BBX 14 32 3 0
BITMAP
0078
00E0
01C0
0380
0000
0000
FFFC
FFFC
FFFC
E000
E000
E000
E000
E000
E000
E000
E000
FFF0
FFF0
FFF0
E000
E000
E000
E000
E000
E000
E000
E000
E000
FFFC
FFFC
FFFC
ENDCHAR
STARTCHAR 00CA
ENCODING 202
SWIDTH 570 0
DWIDTH 19 0
BBX 14 32 3 0
BITMAP
0F00
1F80
38E0
7070
0000
0000
FFFC
FFFC
FFFC
E000
E000
E000
E000
E000
E000
E000
E000
FFF0
FFF0
FFF0
E000
E000
E000
E000
E000
E000
E000
E000
E000
FFFC
FFFC
FFFC
ENDCHAR
STARTCHAR 00CB
ENCODING 203
SWIDTH 570 0
DWIDTH 19 0
BBX 14 31 3 0
BITMAP
30E0
78E0
70E0
0000
0000
FFFC
FFFC
FFFC
E000
E000
E000
E000
E000
E000
E000
E000
FFF0
FFF0
FFF0
E000
E000
E000
E000
E000
E000
E000
E000
E000
FFFC
FFFC
FFFC
ENDCHAR
STARTCHAR 00CC
ENCODING 204
SWIDTH 240 0
DWIDTH 8 0
BBX 8 32 -2 0
BITMAP
F0
38
1C
0E
06
00
07
07
07
07
07
07
07
07
07
07
07
07
07
07
07
07
07
07
07
07
07
07
07
07
07
07
ENDCHAR
STARTCHAR 00CD
ENCODING 205
SWIDTH 240 0
DWIDTH 8 0
BBX 7 33 3 0
BITMAP
0E
1C
38
70
E0
00
00
E0
E0
E0
E0
E0
E0
E0
E0
E0
E0
E0
E0
E0
E0
E0
E0
E0
E0
E0
E0
E0
E0
E0
E0
E0
E0
ENDCHAR
STARTCHAR 00CE
ENCODING 206
SWIDTH 300 0
DWIDTH 10 0
BBX 12 33 -1 0
BITMAP
0600
0F00
1B80
71C0
E0E0
0010
0000
0E00
0E00
0E00
0E00
0E00
0E00
0E00
0E00
0E00
0E00
0E00
0E00
0E00
0E00
0E00
0E00
0E00
0E00
0E00
0E00
0E00
0E00
0E00
0E00
0E00
0E00
ENDCHAR
STARTCHAR 00CF
ENCODING 207
SWIDTH 240 0
DWIDTH 8 0
BBX 10 31 -1 0
BITMAP
E1C0
F1C0
E1C0
0000
0000
0E00
0E00
0E00
0E00
0E00
0E00
0E00
0E00
0E00
0E00
0E00
0E00
0E00
0E00
0E00
0E00
0E00
0E00
0E00
0E00
0E00
0E00
0E00
0E00
0E00
0E00
ENDCHAR
STARTCHAR 00D0
ENCODING 208
SWIDTH 780 0
DWIDTH 26 0
BBX 22 26 2 0
BITMAP
07F800
1FFF80
1FFFC0
1C03E0
1C00F0
1C0070
1C0038
1C0038
1C0038
1C001C
1C001C
FFF01C
FFF01C
FFF01C
1C001C
1C001C
1C001C
1C0038
1C0038
1C0078
1C0070
1C00F0
1C03E0
1FFFC0
1FFF00
1FF800
ENDCHAR
STARTCHAR 00D1
ENCODING 209
SWIDTH 720 0
DWIDTH 24 0
BBX 18 32 3 0
BITMAP
060000
1FC200
3FFF00
007C00
000000
000000
E001C0
F001C0
F001C0
F801C0
F801C0
FC01C0
EE01C0
EE01C0
E701C0
E701C0
E381C0
E1C1C0
E1C1C0
E0E1C0
E0F1C0
E071C0
E039C0
E039C0
E01DC0
E01FC0
E00FC0
E007C0
E007C0
E003C0
E003C0
E001C0
ENDCHAR
STARTCHAR 00D2
ENCODING 210
SWIDTH 750 0
DWIDTH 25 0
BBX 21 32 2 0
BITMAP
070000
038000
01C000
00E000
006000
000000
01FC00
07FF00
0F8FC0
1E03C0
3C00E0
7800F0
700070
700070
E00038
E00038
E00038
E00038
E00038
E00038
E00038
E00038
E00038
E00038
700078
700070
7800F0
3800E0
3E01E0
1F8FC0
07FF80
03FE00
ENDCHAR
STARTCHAR 00D3
ENCODING 211
SWIDTH 750 0
DWIDTH 25 0
BBX 21 32 2 0
BITMAP
000780
000E00
001C00
003800
003000
000000
01FC00
07FF00
0F8FC0
1E03C0
3C00E0
7800F0
700070
700070
E00038
E00038
E00038
E00038
E00038
E00038
E00038
E00038
E00038
E00038
700078
700070
7800F0
3800E0
3E01E0
1F8FC0
07FF80
03FE00
ENDCHAR
STARTCHAR 00D4
ENCODING 212
SWIDTH 750 0
DWIDTH 25 0
BBX 21 32 2 0
BITMAP
007000
00FC00
01CE00
038700
0F0380
000000
01FC00
07FF00
0F8FC0
1E03C0
3C00E0
7800F0
700070
700070
E00038
E00038
E00038
E00038
E00038
E00038
E00038
E00038
E00038
E00038
700078
700070
7800F0
3800E0
3E01E0
1F8FC0
07FF80
03FE00
ENDCHAR
STARTCHAR 00D5
ENCODING 213
SWIDTH 750 0
DWIDTH 25 0
BBX 21 31 2 0
BITMAP
07E080
0FFF80
0C3F80
000400
000000
01FC00
07FF00
0F8FC0
1E03C0
3C00E0
7800F0
700070
700070
E00038
E00038
E00038
E00038
E00038
E00038
E00038
E00038
E00038
E00038
700078
700070
7800F0
3800E0
3E01E0
1F8FC0
07FF80
03FE00
ENDCHAR
STARTCHAR 00D6
ENCODING 214
SWIDTH 750 0
DWIDTH 25 0
BBX 21 31 2 0
BITMAP
030600
038F00
038F00
000000
000000
01FC00
07FF00
0F8FC0
1E03C0
3C00E0
7800F0
700070
700070
E00038
E00038
E00038
E00038
E00038
E00038
E00038
E00038
E00038
E00038
700078
700070
7800F0
3800E0
3E01E0
1F8FC0
07FF80
03FE00
ENDCHAR
STARTCHAR 00D8
ENCODING 216
SWIDTH 750 0
DWIDTH 25 0
BBX 21 28 2 -1
BITMAP
0000E0
01FCC0
07FFC0
0F8FC0
1E03C0
3C03E0
7807F0
700670
700E70
E00C38
E01C38
E01838
E03838
E03038
E07038
E0E038
E0E038
E1C038
E1C038
738078
730070
7F00F0
3E00E0
3E01E0
1F8FC0
1FFF80
1BFE00
380000
ENDCHAR
STARTCHAR 00D9
ENCODING 217
SWIDTH 690 0
DWIDTH 23 0
BBX 17 33 3 -1
BITMAP
3C0000
0E0000
070000
030000
018000
000000
E00380
E00380
E00380
E00380
E00380
E00380
E00380
E00380
E00380
E00380
E00380
E00380
E00380
E00380
E00380
E00380
E00380
E00380
E00380
E00380
E00380
E00700
700F00
7C1E00
3FFE00
0FF800
008000
ENDCHAR
STARTCHAR 00DA
ENCODING 218
SWIDTH 690 0
DWIDTH 23 0
BBX 17 34 3 -1
BITMAP
000E00
001C00
003800
007000
00C000
000000
000000
E00380
E00380
E00380
E00380
E00380
E00380
E00380
E00380
E00380
E00380
E00380
E00380
E00380
E00380
E00380
E00380
E00380
E00380
E00380
E00380
E00380
E00700
700F00
7C1E00
3FFE00
0FF800
008000
ENDCHAR
STARTCHAR 00DB
ENCODING 219
SWIDTH 690 0
DWIDTH 23 0
BBX 17 34 3 -1
BITMAP
01C000
03E000
077000
0E3800
1C1C00
000000
000000
E00380
E00380
E00380
E00380
E00380
E00380
E00380
E00380
E00380
E00380
E00380
E00380
E00380
E00380
E00380
E00380
E00380
E00380
E00380
E00380
E00380
E00700
700F00
7C1E00
3FFE00
0FF800
008000
ENDCHAR
STARTCHAR 00DC
ENCODING 220
SWIDTH 690 0
DWIDTH 23 0
BBX 17 32 3 -1
BITMAP
0E3800
1E3C00
0C3800
000000
000000
E00380
E00380
E00380
E00380
E00380
E00380
E00380
E00380
E00380
E00380
E00380
E00380
E00380
E00380
E00380
E00380
E00380
E00380
E00380
E00380
E00380
E00700
700F00
7C1E00
3FFE00
0FF800
008000
ENDCHAR
STARTCHAR 00DD
ENCODING 221
SWIDTH 630 0
DWIDTH 21 0
BBX 19 33 1 0
BITMAP
001C00
003800
007000
00E000
01C000
000000
000000
E000E0
F001C0
7003C0
780380
3C0700
1C0F00
1E0E00
0E1E00
071C00
07B800
03F800
01F000
01E000
00E000
00E000
00E000
00E000
00E000
00E000
00E000
00E000
00E000
00E000
00E000
00E000
00E000
ENDCHAR
STARTCHAR 00DE
ENCODING 222
SWIDTH 630 0
DWIDTH 21 0
BBX 16 26 3 0
BITMAP
E000
E000
E000
E080
EFF0
FFF8
F83C
E01E
E00E
E007
E007
E007
E007
E007
E007
E007
E00E
F01E
F83C
FFFC
EFF0
E3C0
E000
E000
E000
E000
ENDCHAR
STARTCHAR 00DF
ENCODING 223
SWIDTH 660 0
DWIDTH 22 0
BBX 19 28 1 0
BITMAP
004000
07F800
0FFE00
1E1F00
1C0700
380700
380300
380300
380300
380700
F80F00
F81E00
38FE00
38FE00
38FF00
380F80
3803C0
3801C0
3800E0
3800E0
3800E0
3800E0
3801C0
3801C0
3803C0
38FF80
38FF00
38FC00
ENDCHAR
STARTCHAR 00E0
ENCODING 224
SWIDTH 570 0
DWIDTH 19 0
BBX 15 25 2 0
BITMAP
3800
1C00
0E00
0700
0380
0000
03E0
1FF8
7FF8
781C
601C
001C
001C
001C
07FC
3FFC
7E1C
F01C
E01C
E01C
E03C
E07C
E0FC
7FCE
3F0E
ENDCHAR
STARTCHAR 00E1
ENCODING 225
SWIDTH 570 0
DWIDTH 19 0
BBX 15 25 2 0
BITMAP
0078
00E0
00C0
0180
0200
0000
03E0
1FF8
7FF8
781C
601C
001C
001C
001C
07FC
3FFC
7E1C
F01C
E01C
E01C
E03C
E07C
E0FC
7FCE
3F0E
ENDCHAR
STARTCHAR 00E2
ENCODING 226
SWIDTH 570 0
DWIDTH 19 0
BBX 15 25 2 0
BITMAP
07C0
0EE0
1C70
3838
0000
0000
03E0
1FF8
7FF8
781C
601C
001C
001C
001C
07FC
3FFC
7E1C
F01C
E01C
E01C
E03C
E07C
E0FC
7FCE
3F0E
ENDCHAR
STARTCHAR 00E3
ENCODING 227
SWIDTH 570 0
DWIDTH 19 0
BBX 15 24 2 1
BITMAP
7F0C
7FFC
41F8
0000
0000
03E0
1FF8
7FF8
781C
601C
001C
001C
001C
07FC
3FFC
7E1C
F01C
E01C
E01C
E03C
E07C
E0FC
7FCE
3F0E
ENDCHAR
STARTCHAR 00E4
ENCODING 228
SWIDTH 570 0
DWIDTH 19 0
BBX 15 24 2 0
BITMAP
1830
3C70
1C70
0000
0000
03E0
1FF8
7FF8
781C
601C
001C
001C
001C
07FC
3FFC
7E1C
F01C
E01C
E01C
E03C
E07C
E0FC
7FCE
3F0E
ENDCHAR
STARTCHAR 00E5
ENCODING 229
SWIDTH 570 0
DWIDTH 19 0
BBX 15 26 2 0
BITMAP
07C0
0EC0
0C60
0C40
07C0
0380
0000
03E0
1FF8
7FF8
781C
601C
001C
001C
001C
07FC
3FFC
7E1C
F01C
E01C
E01C
E03C
E07C
E0FC
7FCE
3F0E
ENDCHAR
STARTCHAR 00E6
ENCODING 230
SWIDTH 900 0
DWIDTH 30 0
BBX 26 18 2 0
BITMAP
0FF1FC00
3FFFFE00
FC3F0700
603E0380
001C0380
001C01C0
003FFFC0
07FFFFC0
3FF80000
7E180000
F0180000
E0180000
E01C0000
E03C0180
E07E03C0
E0EF0780
7FC7FF00
3F01FC00
ENDCHAR
STARTCHAR 00E7
ENCODING 231
SWIDTH 510 0
DWIDTH 17 0
BBX 13 26 2 -7
BITMAP
0300
0FE0
1FF8
3838
7010
7000
E000
E000
E000
E000
E000
E000
E000
E000
F000
7010
3838
3FF8
0FF0
0380
0300
0780
01C0
00C0
1F80
0F00
ENDCHAR
STARTCHAR 00E8
ENCODING 232
SWIDTH 570 0
DWIDTH 19 0
BBX 15 25 2 -1
BITMAP
7800
1C00
0C00
0600
0300
0000
0000
0FF0
1FF8
3C3C
701C
700E
E00E
FFFE
FFFE
E000
E000
E000
E000
E000
6004
700E
383C
1FF8
0FF0
ENDCHAR
STARTCHAR 00E9
ENCODING 233
SWIDTH 570 0
DWIDTH 19 0
BBX 15 25 2 -1
BITMAP
003C
0078
00E0
00C0
0180
0000
0000
0FF0
1FF8
3C3C
701C
700E
E00E
FFFE
FFFE
E000
E000
E000
E000
E000
6004
700E
383C
1FF8
0FF0
ENDCHAR
STARTCHAR 00EA
ENCODING 234
SWIDTH 570 0
DWIDTH 19 0
BBX 15 25 2 -1
BITMAP
0380
07C0
0EE0
1C70
3838
0000
0000
0FF0
1FF8
3C3C
701C
700E
E00E
FFFE
FFFE
E000
E000
E000
E000
E000
6004
700E
383C
1FF8
0FF0
ENDCHAR
STARTCHAR 00EB
ENCODING 235
SWIDTH 570 0
DWIDTH 19 0
BBX 15 23 2 -1
BITMAP
3C70
3C70
1830
0000
0000
0FF0
1FF8
3C3C
701C
700E
E00E
FFFE
FFFE
E000
E000
E000
E000
E000
6004
700E
383C
1FF8
0FF0
ENDCHAR
STARTCHAR 00EC
ENCODING 236
SWIDTH 240 0
DWIDTH 8 0
BBX 8 25 -2 0
BITMAP
F0
38
1C
0E
06
00
00
07
07
07
07
07
07
07
07
07
07
07
07
07
07
07
07
07
07
ENDCHAR
STARTCHAR 00ED
ENCODING 237
SWIDTH 240 0
DWIDTH 8 0
BBX 7 25 3 0
BITMAP
0E
1C
38
70
C0
00
00
E0
E0
E0
E0
E0
E0
E0
E0
E0
E0
E0
E0
E0
E0
E0
E0
E0
E0
ENDCHAR
STARTCHAR 00EE
ENCODING 238
SWIDTH 300 0
DWIDTH 10 0
BBX 12 25 -1 0
BITMAP
0E00
1F00
3980
70E0
E070
0000
0000
0E00
0E00
0E00
0E00
0E00
0E00
0E00
0E00
0E00
0E00
0E00
0E00
0E00
0E00
0E00
0E00
0E00
0E00
ENDCHAR
STARTCHAR 00EF
ENCODING 239
SWIDTH 240 0
DWIDTH 8 0
BBX 10 23 -1 0
BITMAP
E1C0
E1C0
61C0
0000
0000
0E00
0E00
0E00
0E00
0E00
0E00
0E00
0E00
0E00
0E00
0E00
0E00
0E00
0E00
0E00
0E00
0E00
0E00
ENDCHAR
STARTCHAR 00F0
ENCODING 240
SWIDTH 600 0
DWIDTH 20 0
BBX 16 27 2 0
BITMAP
0040
0060
1FC0
3FF0
31F8
033C
071C
000E
000E
0007
0FE7
3FFF
3C3F
701F
7007
E007
E007
E007
E007
E007
E007
E00E
E00E
701E
3C3C
3FF8
0FF0
ENDCHAR
STARTCHAR 00F1
ENCODING 241
SWIDTH 600 0
DWIDTH 20 0
BBX 15 24 3 0
BITMAP
3E04
FFFC
41F8
0000
0000
0070
E3FC
E7FC
FF0E
FC0E
F80E
E00E
E00E
E00E
E00E
E00E
E00E
E00E
E00E
E00E
E00E
E00E
E00E
E00E
ENDCHAR
STARTCHAR 00F2
ENCODING 242
SWIDTH 600 0
DWIDTH 20 0
BBX 16 25 2 0
BITMAP
3800
1C00
0E00
0700
0380
0000
07E0
1FF0
3E78
781C
700E
E00E
E006
E007
E007
E007
E007
E007
E006
E00E
700E
701C
3C3C
1FF8
0FE0
ENDCHAR
STARTCHAR 00F3
ENCODING 243
SWIDTH 600 0
DWIDTH 20 0
BBX 16 25 2 0
BITMAP
003C
0070
00E0
01C0
0000
0000
07E0
1FF0
3E78
781C
700E
E00E
E006
E007
E007
E007
E007
E007
E006
E00E
700E
701C
3C3C
1FF8
0FE0
ENDCHAR
STARTCHAR 00F4
ENCODING 244
SWIDTH 600 0
DWIDTH 20 0
BBX 16 25 2 0
BITMAP
03C0
06E0
1C70
3838
0000
0000
07E0
1FF0
3E78
781C
700E
E00E
E006
E007
E007
E007
E007
E007
E006
E00E
700E
701C
3C3C
1FF8
0FE0
ENDCHAR
STARTCHAR 00F5
ENCODING 245
SWIDTH 600 0
DWIDTH 20 0
BBX 16 24 2 1
BITMAP
3F04
7FFE
00F8
0000
0000
07E0
1FF0
3E78
781C
700E
E00E
E006
E007
E007
E007
E007
E007
E006
E00E
700E
701C
3C3C
1FF8
0FE0
ENDCHAR
STARTCHAR 00F6
ENCODING 246
SWIDTH 600 0
DWIDTH 20 0
BBX 16 24 2 0
BITMAP
1C30
1C78
1C38
0000
0000
07E0
1FF0
3E78
781C
700E
E00E
E006
E007
E007
E007
E007
E007
E006
E00E
700E
701C
3C3C
1FF8
0FE0
ENDCHAR
STARTCHAR 00F8
ENCODING 248
SWIDTH 600 0
DWIDTH 20 0
BBX 16 21 2 -1
BITMAP
000C
07FC
1FF8
3E78
783C
707E
E06E
E0EE
E1C7
E1C7
E387
E387
E707
E706
EE0E
7E0E
7C1C
3C3C
3FF8
3FE0
7000
ENDCHAR
STARTCHAR 00F9
ENCODING 249
SWIDTH 600 0
DWIDTH 20 0
BBX 15 25 2 0
BITMAP
3800
1C00
0E00
0700
0380
0000
0000
E006
E006
E006
E006
E006
E006
E006
E006
E006
E006
E006
E006
E01E
E03E
E07E
73F6
7FC6
3F06
ENDCHAR
STARTCHAR 00FA
ENCODING 250
SWIDTH 600 0
DWIDTH 20 0
BBX 15 25 2 0
BITMAP
001C
0038
0070
00E0
0180
0000
0000
E006
E006
E006
E006
E006
E006
E006
E006
E006
E006
E006
E006
E01E
E03E
E07E
73F6
7FC6
3F06
ENDCHAR
STARTCHAR 00FB
ENCODING 251
SWIDTH 600 0
DWIDTH 20 0
BBX 15 25 2 0
BITMAP
0380
07C0
0EE0
1C70
381C
0000
0000
E006
E006
E006
E006
E006
E006
E006
E006
E006
E006
E006
E006
E01E
E03E
E07E
73F6
7FC6
3F06
ENDCHAR
STARTCHAR 00FC
ENCODING 252
SWIDTH 600 0
DWIDTH 20 0
BBX 15 23 2 0
BITMAP
1C38
1C78
1C30
0000
0000
E006
E006
E006
E006
E006
E006
E006
E006
E006
E006
E006
E006
E01E
E03E
E07E
73F6
7FC6
3F06
ENDCHAR
STARTCHAR 00FD
ENCODING 253
SWIDTH 510 0
DWIDTH 17 0
BBX 17 34 0 -9
BITMAP
003C00
007000
00E000
00C000
018000
000000
000000
700380
700700
700700
380E00
380E00
1C1C00
1C1C00
1C1C00
0E3800
0E3800
077000
077000
07E000
03E000
03E000
01C000
01C000
038000
038000
038000
070000
070000
0E0000
1E0000
7C0000
F80000
E00000
ENDCHAR
STARTCHAR 00FE
ENCODING 254
SWIDTH 630 0
DWIDTH 21 0
BBX 16 35 3 -9
BITMAP
E000
E000
E000
E000
E000
E000
E000
E0E0
E7F8
EFFC
FE1C
F80E
F00E
E007
E007
E007
E007
E007
E007
E007
E006
E00E
F01E
FC3C
FFFC
E7F0
E1C0
E000
E000
E000
E000
E000
E000
E000
E000
ENDCHAR
STARTCHAR 00FF
ENCODING 255
SWIDTH 510 0
DWIDTH 17 0
BBX 17 32 0 -9
BITMAP
0E3800
1E3800
0C1800
000000
000000
700380
700700
700700
380E00
380E00
1C1C00
1C1C00
1C1C00
0E3800
0E3800
077000
077000
07E000
03E000
03E000
01C000
01C000
038000
038000
038000
070000
070000
0E0000
1E0000
7C0000
F80000
E00000
ENDCHAR
STARTCHAR 0102
ENCODING 258
SWIDTH 720 0
DWIDTH 24 0
BBX 22 32 1 0
BITMAP
030300
030700
018E00
00FC00
003000
000000
007800
007800
00F800
00FC00
00FC00
01DC00
01DE00
01CE00
038E00
038700
078700
070780
070380
0F0380
0E03C0
0FFFC0
1FFFC0
1FFFE0
1C00E0
3800E0
380070
780070
700078
700038
E00038
E0003C
ENDCHAR
STARTCHAR 0103
ENCODING 259
SWIDTH 570 0
DWIDTH 19 0
BBX 15 25 2 0
BITMAP
3038
3830
1C70
0FE0
07C0
0000
03E0
1FF8
7FF8
781C
601C
001C
001C
001C
07FC
3FFC
7E1C
F01C
E01C
E01C
E03C
E07C
E0FC
7FCE
3F0E
ENDCHAR
STARTCHAR 0104
ENCODING 260
SWIDTH 720 0
DWIDTH 24 0
BBX 24 31 1 -5
BITMAP
007800
007800
00F800
00FC00
00FC00
01DC00
01DE00
01CE00
038E00
038700
078700
070780
070380
0F0380
0E03C0
0FFFC0
1FFFC0
1FFFE0
1C00E0
3800E0
380070
780070
700078
700038
E00038
E0003C
000030
000060
000062
00003F
00001C
ENDCHAR
STARTCHAR 0105
ENCODING 261
SWIDTH 570 0
DWIDTH 19 0
BBX 16 24 2 -5
BITMAP
03E0
1FF8
7FF8
781C
601C
001C
001C
001C
07FC
3FFC
7E1C
F01C
E01C
E01C
E03C
E07C
E0FC
7FDE
3F3E
0020
0060
0060
003F
001C
ENDCHAR
STARTCHAR 0106
ENCODING 262
SWIDTH 630 0
DWIDTH 21 0
BBX 18 33 2 -1
BITMAP
000700
000E00
001C00
003000
006000
000000
01FC00
07FF00
0FFF80
1E03C0
3C0180
380000
780000
700000
700000
E00000
E00000
E00000
E00000
E00000
E00000
E00000
E00000
E00000
F00000
700000
780000
380000
3C00C0
1F03C0
0FFF80
07FF00
00FC00
ENDCHAR
STARTCHAR 0107
ENCODING 263
SWIDTH 510 0
DWIDTH 17 0
BBX 13 26 2 -1
BITMAP
0038
0070
00E0
01C0
0380
0000
0300
0FE0
1FF8
3C38
7010
7000
E000
E000
E000
E000
E000
E000
E000
E000
F000
7010
3838
3FF8
0FF0
0380
ENDCHAR
STARTCHAR 0108
ENCODING 264
SWIDTH 630 0
DWIDTH 21 0
BBX 18 33 2 -1
BITMAP
007000
00F800
01DC00
038E00
070700
000000
01FC00
07FF00
0FFF80
1E03C0
3C0180
380000
780000
700000
700000
E00000
E00000
E00000
E00000
E00000
E00000
E00000
E00000
E00000
F00000
700000
780000
380000
3C00C0
1F03C0
0FFF80
07FF00
00FC00
ENDCHAR
STARTCHAR 0109
ENCODING 265
SWIDTH 510 0
DWIDTH 17 0
BBX 13 26 2 -1
BITMAP
0380
07C0
0EE0
1C70
3838
0000
0300
0FE0
1FF8
3C38
7010
7000
E000
E000
E000
E000
E000
E000
E000
E000
F000
7010
3838
3FF8
0FF0
0380
ENDCHAR
STARTCHAR 010C
ENCODING 268
SWIDTH 630 0
DWIDTH 21 0
BBX 18 33 2 -1
BITMAP
0E0700
070E00
039C00
01F800
00F000
000000
01FC00
07FF00
0FFF80
1E03C0
3C0180
380000
780000
700000
700000
E00000
E00000
E00000
E00000
E00000
E00000
E00000
E00000
E00000
F00000
700000
780000
380000
3C00C0
1F03C0
0FFF80
07FF00
00FC00
ENDCHAR
STARTCHAR 010D
ENCODING 269
SWIDTH 510 0
DWIDTH 17 0
BBX 13 26 2 -1
BITMAP
3838
1C70
0EE0
07C0
0380
0000
0300
0FE0
1FF8
3C38
7010
7000
E000
E000
E000
E000
E000
E000
E000
E000
F000
7010
3838
3FF8
0FF0
0380
ENDCHAR
STARTCHAR 010E
ENCODING 270
SWIDTH 720 0
DWIDTH 24 0
BBX 19 32 3 0
BITMAP
383800
1C7000
0EE000
07C000
038000
000000
3FC000
FFF800
FFFE00
E01F00
E00780
E00380
E001C0
E001C0
E001C0
E001C0
E000E0
E000E0
E000E0
E000E0
E000E0
E000E0
E001C0
E001C0
E001C0
E003C0
E00380
E00700
E01F00
FFFE00
FFF800
FF8000
ENDCHAR
STARTCHAR 0114
ENCODING 276
SWIDTH 570 0
DWIDTH 19 0
BBX 14 32 3 0
BITMAP
3030
3070
18E0
0FC0
0300
0000
FFFC
FFFC
FFFC
E000
E000
E000
E000
E000
E000
E000
E000
FFF0
FFF0
FFF0
E000
E000
E000
E000
E000
E000
E000
E000
E000
FFFC
FFFC
FFFC
ENDCHAR
STARTCHAR 0115
ENCODING 277
SWIDTH 570 0
DWIDTH 19 0
BBX 15 25 2 -1
BITMAP
3018
1830
1C70
0FE0
03C0
0000
0000
0FF0
1FF8
3C3C
701C
700E
E00E
FFFE
FFFE
E000
E000
E000
E000
E000
6004
700E
383C
1FF8
0FF0
ENDCHAR
STARTCHAR 0118
ENCODING 280
SWIDTH 570 0
DWIDTH 19 0
BBX 15 31 3 -5
BITMAP
FFFC
FFFC
FFFC
E000
E000
E000
E000
E000
E000
E000
E000
FFF0
FFF0
FFF0
E000
E000
E000
E000
E000
E000
E000
E000
E000
FFFC
FFFC
FFFC
0060
0040
0064
007E
003C
ENDCHAR
STARTCHAR 0119
ENCODING 281
SWIDTH 570 0
DWIDTH 19 0
BBX 15 23 2 -5
BITMAP
0FF0
1FF8
3C3C
701C
700E
E00E
FFFE
FFFE
E000
E000
E000
E000
E000
6004
700E
383C
1FF8
0FF0
0100
0300
0300
01F8
00E0
ENDCHAR
STARTCHAR 011A
ENCODING 282
SWIDTH 570 0
DWIDTH 19 0
BBX 14 32 3 0
BITMAP
7038
3870
1CE0
0FC0
0380
0000
FFFC
FFFC
FFFC
E000
E000
E000
E000
E000
E000
E000
E000
FFF0
FFF0
FFF0
E000
E000
E000
E000
E000
E000
E000
E000
E000
FFFC
FFFC
FFFC
ENDCHAR
STARTCHAR 011B
ENCODING 283
SWIDTH 570 0
DWIDTH 19 0
BBX 15 25 2 -1
BITMAP
3838
1C70
0EE0
07C0
0380
0000
0000
0FF0
1FF8
3C3C
701C
700E
E00E
FFFE
FFFE
E000
E000
E000
E000
E000
6004
700E
383C
1FF8
0FF0
ENDCHAR
STARTCHAR 011C
ENCODING 284
SWIDTH 750 0
DWIDTH 25 0
BBX 20 32 2 0
BITMAP
003800
007C00
00EE00
01C700
038380
000000
00FE00
03FF80
0FE7E0
1F00F0
1E0060
3C0000
780000
700000
700000
F00000
E00000
E00000
E00000
E01FF0
E01FF0
E01FF0
E00070
E00070
700070
700070
780070
3C0070
1E01F0
0FFFE0
07FFC0
00FE00
ENDCHAR
STARTCHAR 011D
ENCODING 285
SWIDTH 600 0
DWIDTH 20 0
BBX 17 34 2 -9
BITMAP
078000
0EE000
1C7000
383800
000300
001F80
03FF80
1FF800
3E7C00
781C00
700E00
600E00
600E00
700E00
700E00
381C00
3FF800
1FE000
380000
700000
700000
7FF000
3FFE00
38FF00
700780
E00380
E00180
E00380
E00380
E00780
700F00
7EFE00
1FFC00
07F000
ENDCHAR
STARTCHAR 011E
ENCODING 286
SWIDTH 750 0
DWIDTH 25 0
BBX 20 32 2 0
BITMAP
030380
018300
01C700
00FE00
001000
000000
00FE00
03FF80
0FE7E0
1F00F0
1E0060
3C0000
780000
700000
700000
F00000
E00000
E00000
E00000
E01FF0
E01FF0
E01FF0
E00070
E00070
700070
700070
780070
3C0070
1E01F0
0FFFE0
07FFC0
00FE00
ENDCHAR
STARTCHAR 011F
ENCODING 287
SWIDTH 600 0
DWIDTH 20 0
BBX 17 34 2 -9
BITMAP
301800
183000
1C7000
0FE000
038300
001F80
03FF80
1FF800
3E7C00
781C00
700E00
600E00
600E00
700E00
700E00
381C00
3FF800
1FE000
380000
700000
700000
7FF000
3FFE00
38FF00
700780
E00380
E00180
E00380
E00380
E00780
700F00
7EFE00
1FFC00
07F000
ENDCHAR
STARTCHAR 0124
ENCODING 292
SWIDTH 750 0
DWIDTH 25 0
BBX 19 32 3 0
BITMAP
00E000
01F000
03B800
071C00
0E0E00
000000
E000E0
E000E0
E000E0
E000E0
E000E0
E000E0
E000E0
E000E0
E000E0
E000E0
E000E0
FFFFE0
FFFFE0
FFFFE0
E000E0
E000E0
E000E0
E000E0
E000E0
E000E0
E000E0
E000E0
E000E0
E000E0
E000E0
E000E0
ENDCHAR
STARTCHAR 0125
ENCODING 293
SWIDTH 600 0
DWIDTH 20 0
BBX 15 27 3 0
BITMAP
E000
E000
E0E0
E1F0
E3B8
E71C
EE0E
E000
E070
E3FC
E7FC
FF0E
FC0E
F80E
E00E
E00E
E00E
E00E
E00E
E00E
E00E
E00E
E00E
E00E
E00E
E00E
E00E
ENDCHAR
STARTCHAR 0128
ENCODING 296
SWIDTH 270 0
DWIDTH 9 0
BBX 13 31 -2 0
BITMAP
3800
FF38
EFF8
00E0
0000
0700
0700
0700
0700
0700
0700
0700
0700
0700
0700
0700
0700
0700
0700
0700
0700
0700
0700
0700
0700
0700
0700
0700
0700
0700
0700
ENDCHAR
STARTCHAR 0129
ENCODING 297
SWIDTH 240 0
DWIDTH 8 0
BBX 14 25 -3 0
BITMAP
0800
7E00
FFFC
41F8
0060
0000
0000
0380
0380
0380
0380
0380
0380
0380
0380
0380
0380
0380
0380
0380
0380
0380
0380
0380
0380
ENDCHAR
STARTCHAR 012C
ENCODING 300
SWIDTH 270 0
DWIDTH 9 0
BBX 10 32 -1 0
BITMAP
C0C0
E0C0
7180
3F80
0E00
0000
0E00
0E00
0E00
0E00
0E00
0E00
0E00
0E00
0E00
0E00
0E00
0E00
0E00
0E00
0E00
0E00
0E00
0E00
0E00
0E00
0E00
0E00
0E00
0E00
0E00
0E00
ENDCHAR
STARTCHAR 012D
ENCODING 301
SWIDTH 240 0
DWIDTH 8 0
BBX 10 25 -1 0
BITMAP
C0C0
E0C0
71C0
3F80
1E00
0000
0000
0E00
0E00
0E00
0E00
0E00
0E00
0E00
0E00
0E00
0E00
0E00
0E00
0E00
0E00
0E00
0E00
0E00
0E00
ENDCHAR
STARTCHAR 012E
ENCODING 302
SWIDTH 270 0
DWIDTH 9 0
BBX 6 31 1 -5
BITMAP
38
38
38
38
38
38
38
38
38
38
38
38
38
38
38
38
38
38
38
38
38
38
38
38
38
78
C0
C0
C0
FC
78
ENDCHAR
STARTCHAR 012F
ENCODING 303
SWIDTH 270 0
DWIDTH 9 0
BBX 7 30 1 -5
BITMAP
38
38
38
00
00
00
00
38
38
38
38
38
38
38
38
38
38
38
38
38
38
38
38
38
78
60
C0
C4
7E
38
ENDCHAR
STARTCHAR 0131
ENCODING 305
SWIDTH 240 0
DWIDTH 8 0
BBX 3 18 3 0
BITMAP
E0
E0
E0
E0
E0
E0
E0
E0
E0
E0
E0
E0
E0
E0
E0
E0
E0
E0
ENDCHAR
STARTCHAR 0134
ENCODING 308
SWIDTH 270 0
DWIDTH 9 0
BBX 12 41 -1 -9
BITMAP
0700
0F80
1DC0
38E0
F070
0000
0700
0700
0700
0700
0700
0700
0700
0700
0700
0700
0700
0700
0700
0700
0700
0700
0700
0700
0700
0700
0700
0700
0700
0700
0700
0700
0700
0700
0700
0E00
0E00
3C00
7C00
7800
6000
ENDCHAR
STARTCHAR 0135
ENCODING 309
SWIDTH 210 0
DWIDTH 7 0
BBX 12 34 -3 -9
BITMAP
0E00
1F00
3B80
71C0
E0F0
0000
0000
0E00
0E00
0E00
0E00
0E00
0E00
0E00
0E00
0E00
0E00
0E00
0E00
0E00
0E00
0E00
0E00
0E00
0E00
0E00
0E00
0E00
0E00
0E00
1C00
3C00
3800
3000
ENDCHAR
STARTCHAR 0143
ENCODING 323
SWIDTH 720 0
DWIDTH 24 0
BBX 18 33 3 0
BITMAP
000E00
001C00
003800
007000
00E000
000000
000000
E001C0
F001C0
F001C0
F801C0
F801C0
FC01C0
EE01C0
EE01C0
E701C0
E701C0
E381C0
E1C1C0
E1C1C0
E0E1C0
E0F1C0
E071C0
E039C0
E039C0
E01DC0
E01FC0
E00FC0
E007C0
E007C0
E003C0
E003C0
E001C0
ENDCHAR
STARTCHAR 0144
ENCODING 324
SWIDTH 600 0
DWIDTH 20 0
BBX 15 25 3 0
BITMAP
0078
0070
00E0
0180
0300
0000
0070
E3FC
E7FC
FF0E
FC0E
F80E
E00E
E00E
E00E
E00E
E00E
E00E
E00E
E00E
E00E
E00E
E00E
E00E
E00E
ENDCHAR
STARTCHAR 0147
ENCODING 327
SWIDTH 720 0
DWIDTH 24 0
BBX 18 32 3 0
BITMAP
1C0E00
0E1C00
073800
03F000
01E000
000000
E001C0
F001C0
F001C0
F801C0
F801C0
FC01C0
EE01C0
EE01C0
E701C0
E701C0
E381C0
E1C1C0
E1C1C0
E0E1C0
E0F1C0
E071C0
E039C0
E039C0
E01DC0
E01FC0
E00FC0
E007C0
E007C0
E003C0
E003C0
E001C0
ENDCHAR
STARTCHAR 0148
ENCODING 328
SWIDTH 600 0
DWIDTH 20 0
BBX 15 25 3 0
BITMAP
3838
1C70
0EE0
07C0
0380
0000
0070
E3FC
E7FC
FF0E
FC0E
F80E
E00E
E00E
E00E
E00E
E00E
E00E
E00E
E00E
E00E
E00E
E00E
E00E
E00E
ENDCHAR
STARTCHAR 014E
ENCODING 334
SWIDTH 750 0
DWIDTH 25 0
BBX 21 32 2 0
BITMAP
060300
030600
038E00
01FC00
003000
000000
01FC00
07FF00
0F8FC0
1E03C0
3C00E0
7800F0
700070
700070
E00038
E00038
E00038
E00038
E00038
E00038
E00038
E00038
E00038
E00038
700078
700070
7800F0
3800E0
3E01E0
1F8FC0
07FF80
03FE00
ENDCHAR
STARTCHAR 014F
ENCODING 335
SWIDTH 600 0
DWIDTH 20 0
BBX 16 25 2 0
BITMAP
1818
1838
1C70
0FE0
03C0
0000
07E0
1FF0
3E78
781C
700E
E00E
E006
E007
E007
E007
E007
E007
E006
E00E
700E
701C
3C3C
1FF8
0FE0
ENDCHAR
STARTCHAR 0152
ENCODING 338
SWIDTH 960 0
DWIDTH 32 0
BBX 29 26 2 -1
BITMAP
03FFFFF0
0FFFFFF0
1F8FFFF0
3E038000
3C038000
78038000
70038000
70038000
E0038000
E0038000
E0038000
E003FFC0
E003FFC0
E003FFC0
E0038000
E0038000
E0038000
E0038000
70038000
70038000
78038000
38038000
3C038000
1F07FFF8
07FFFFF8
03FFFFF8
ENDCHAR
STARTCHAR 0153
ENCODING 339
SWIDTH 960 0
DWIDTH 32 0
BBX 28 19 2 0
BITMAP
07E03F00
1FF0FF80
3E79F7C0
781DC0E0
700F80E0
E00F8070
E0070070
E007FFF0
E007FFF0
E0070000
E0070000
E0070000
E0070000
E00F0000
700F8020
701F8070
3C3DE1E0
1FF8FFC0
0FE07F80
ENDCHAR
STARTCHAR 0154
ENCODING 340
SWIDTH 660 0
DWIDTH 22 0
BBX 18 32 3 0
BITMAP
001C00
003800
007000
00E000
01C000
000000
E7E000
FFF800
FFFC00
F01E00
E00E00
E00E00
E00600
E00600
E00E00
E00E00
E00E00
E01E00
E07C00
FFF800
FFE000
E3C000
E1E000
E0F000
E07800
E03800
E01C00
E01E00
E00E00
E00700
E00780
E003C0
ENDCHAR
STARTCHAR 0155
ENCODING 341
SWIDTH 450 0
DWIDTH 15 0
BBX 11 25 3 0
BITMAP
01C0
0380
0700
0E00
0C00
0000
0300
EFE0
FFE0
FC40
F800
F000
E000
E000
E000
E000
E000
E000
E000
E000
E000
E000
E000
E000
E000
ENDCHAR
STARTCHAR 0158
ENCODING 344
SWIDTH 660 0
DWIDTH 22 0
BBX 18 32 3 0
BITMAP
381C00
1C3800
0E7000
03E000
01C000
000000
E7E000
FFF800
FFFC00
F01E00
E00E00
E00E00
E00600
E00600
E00E00
E00E00
E00E00
E01E00
E07C00
FFF800
FFE000
E3C000
E1E000
E0F000
E07800
E03800
E01C00
E01E00
E00E00
E00700
E00780
E003C0
ENDCHAR
STARTCHAR 0159
ENCODING 345
SWIDTH 450 0
DWIDTH 15 0
BBX 12 25 2 0
BITMAP
E070
70E0
39C0
1F80
0F00
0000
0180
77F0
7FF0
7E20
7C00
7800
7000
7000
7000
7000
7000
7000
7000
7000
7000
7000
7000
7000
7000
ENDCHAR
STARTCHAR 015A
ENCODING 346
SWIDTH 630 0
DWIDTH 21 0
BBX 17 33 2 -1
BITMAP
003C00
003800
007000
00C000
018000
000000
07F000
1FFC00
3FFE00
380E00
700400
700000
700000
700000
700000
780000
3C0000
3F8000
0FF000
03FC00
007E00
000F00
000700
000380
000380
000380
400380
E00380
F00700
7C0F00
3FFE00
0FFC00
03E000
ENDCHAR
STARTCHAR 015B
ENCODING 347
SWIDTH 510 0
DWIDTH 17 0
BBX 13 25 2 0
BITMAP
00E0
01C0
0380
0700
0600
0000
0F80
3FE0
79F0
7020
E000
E000
7000
7800
3F00
1FE0
03F0
0078
0038
0038
4038
E038
F070
7FF0
1FC0
ENDCHAR
STARTCHAR 015C
ENCODING 348
SWIDTH 630 0
DWIDTH 21 0
BBX 17 33 2 -1
BITMAP
01C000
03E000
077000
0E3800
3C1C00
000000
07F000
1FFC00
3FFE00
380E00
700400
700000
700000
700000
700000
780000
3C0000
3F8000
0FF000
03FC00
007E00
000F00
000700
000380
000380
000380
400380
E00380
F00700
7C0F00
3FFE00
0FFC00
03E000
ENDCHAR
STARTCHAR 015D
ENCODING 349
SWIDTH 510 0
DWIDTH 17 0
BBX 13 25 2 0
BITMAP
0700
0F80
1DC0
38E0
7070
0000
0F80
3FE0
79F0
7020
E000
E000
7000
7800
3F00
1FE0
03F0
0078
0038
0038
4038
E038
F070
7FF0
1FC0
ENDCHAR
STARTCHAR 0160
ENCODING 352
SWIDTH 630 0
DWIDTH 21 0
BBX 17 33 2 -1
BITMAP
3C1C00
0E3800
077000
03E000
01C000
000000
07F000
1FFC00
3FFE00
380E00
700400
700000
700000
700000
700000
780000
3C0000
3F8000
0FF000
03FC00
007E00
000F00
000700
000380
000380
000380
400380
E00380
F00700
7C0F00
3FFE00
0FFC00
03E000
ENDCHAR
STARTCHAR 0161
ENCODING 353
SWIDTH 510 0
DWIDTH 17 0
BBX 13 25 2 0
BITMAP
7070
38E0
1DC0
0F80
0700
0000
0F80
3FE0
79F0
7020
E000
E000
7000
7800
3F00
1FE0
03F0
0078
0038
0038
4038
E038
F070
7FF0
1FC0
ENDCHAR
STARTCHAR 0164
ENCODING 356
SWIDTH 570 0
DWIDTH 19 0
BBX 18 32 0 0
BITMAP
1C0E00
0E1C00
033800
01F000
00E000
000000
FFFFC0
FFFFC0
FFFFC0
00E000
00E000
00E000
00E000
00E000
00E000
00E000
00E000
00E000
00E000
00E000
00E000
00E000
00E000
00E000
00E000
00E000
00E000
00E000
00E000
00E000
00E000
00E000
ENDCHAR
STARTCHAR 0168
ENCODING 360
SWIDTH 690 0
DWIDTH 23 0
BBX 17 32 3 -1
BITMAP
0E0000
3FC600
3BFE00
203800
000000
E00380
E00380
E00380
E00380
E00380
E00380
E00380
E00380
E00380
E00380
E00380
E00380
E00380
E00380
E00380
E00380
E00380
E00380
E00380
E00380
E00380
E00700
700F00
7C1E00
3FFE00
0FF800
008000
ENDCHAR
STARTCHAR 0169
ENCODING 361
SWIDTH 600 0
DWIDTH 20 0
BBX 15 24 2 0
BITMAP
3E00
7FCE
21FC
0000
0000
0000
E006
E006
E006
E006
E006
E006
E006
E006
E006
E006
E006
E006
E01E
E03E
E07E
73F6
7FC6
3F06
ENDCHAR
STARTCHAR 016C
ENCODING 364
SWIDTH 690 0
DWIDTH 23 0
BBX 17 33 3 -1
BITMAP
180C00
0C1800
0E3800
07F000
008000
000000
E00380
E00380
E00380
E00380
E00380
E00380
E00380
E00380
E00380
E00380
E00380
E00380
E00380
E00380
E00380
E00380
E00380
E00380
E00380
E00380
E00380
E00700
700F00
7C1E00
3FFE00
0FF800
008000
ENDCHAR
STARTCHAR 016D
ENCODING 365
SWIDTH 600 0
DWIDTH 20 0
BBX 15 25 2 0
BITMAP
1818
1818
1E78
0FF0
07E0
0000
0000
E006
E006
E006
E006
E006
E006
E006
E006
E006
E006
E006
E006
E01E
E03E
E07E
73F6
7FC6
3F06
ENDCHAR
STARTCHAR 016E
ENCODING 366
SWIDTH 690 0
DWIDTH 23 0
BBX 17 35 3 -1
BITMAP
008000
03E000
066000
062000
066000
03E000
008000
000000
E00380
E00380
E00380
E00380
E00380
E00380
E00380
E00380
E00380
E00380
E00380
E00380
E00380
E00380
E00380
E00380
E00380
E00380
E00380
E00380
E00380
E00700
700F00
7C1E00
3FFE00
0FF800
008000
ENDCHAR
STARTCHAR 016F
ENCODING 367
SWIDTH 600 0
DWIDTH 20 0
BBX 15 26 2 0
BITMAP
0180
07E0
0660
0620
0660
03C0
0000
0000
E006
E006
E006
E006
E006
E006
E006
E006
E006
E006
E006
E006
E01E
E03E
E07E
73F6
7FC6
3F06
ENDCHAR
STARTCHAR 0172
ENCODING 370
SWIDTH 690 0
DWIDTH 23 0
BBX 17 31 3 -5
BITMAP
E00380
E00380
E00380
E00380
E00380
E00380
E00380
E00380
E00380
E00380
E00380
E00380
E00380
E00380
E00380
E00380
E00380
E00380
E00380
E00380
E00380
E00700
700F00
7C1E00
3FFE00
0FF800
018000
018000
018000
01F800
00F000
ENDCHAR
STARTCHAR 0173
ENCODING 371
SWIDTH 600 0
DWIDTH 20 0
BBX 17 24 2 -6
BITMAP
E00600
E00600
E00600
E00600
E00600
E00600
E00600
E00600
E00600
E00600
E00600
E00600
E01E00
E03E00
E07E00
73F600
7FC600
3F0600
000800
001800
001800
001900
001F80
000400
ENDCHAR
STARTCHAR 0174
ENCODING 372
SWIDTH 990 0
DWIDTH 33 0
BBX 31 32 1 0
BITMAP
00038000
0007C000
000CE000
00187000
00703800
00000000
E003800E
E007801C
6007801C
7007C01C
7007C038
700FC038
380FC038
380EE038
381CE070
381CE070
1C1C7070
1C1C7060
1C3870E0
0C3870E0
0E3838E0
0E3038C0
0E7039C0
067019C0
07701DC0
07601D80
03E01F80
03E00F80
03C00F00
03C00F00
01C00700
01C00700
ENDCHAR
STARTCHAR 0175
ENCODING 373
SWIDTH 780 0
DWIDTH 26 0
BBX 24 25 1 0
BITMAP
003C00
007E00
00E700
01C380
0381C0
000000
000000
E03807
E03806
703C0E
703C0E
707C0C
706E1C
386E1C
38E618
38E638
18C738
1CC330
1DC330
1D83F0
0F81F0
0F81E0
0F01E0
0701E0
0700C0
ENDCHAR
STARTCHAR 0176
ENCODING 374
SWIDTH 630 0
DWIDTH 21 0
BBX 19 32 1 0
BITMAP
00E000
01F000
033800
061C00
1C0E00
000000
E000E0
F001C0
7003C0
780380
3C0700
1C0F00
1E0E00
0E1E00
071C00
07B800
03F800
01F000
01E000
00E000
00E000
00E000
00E000
00E000
00E000
00E000
00E000
00E000
00E000
00E000
00E000
00E000
ENDCHAR
STARTCHAR 0177
ENCODING 375
SWIDTH 510 0
DWIDTH 17 0
BBX 17 34 0 -9
BITMAP
01C000
03E000
077000
0E3800
1C1C00
000000
000000
700380
700700
700700
380E00
380E00
1C1C00
1C1C00
1C1C00
0E3800
0E3800
077000
077000
07E000
03E000
03E000
01C000
01C000
038000
038000
038000
070000
070000
0E0000
1E0000
7C0000
F80000
E00000
ENDCHAR
STARTCHAR 0178
ENCODING 376
SWIDTH 630 0
DWIDTH 21 0
BBX 19 31 1 0
BITMAP
0E1C00
0F1C00
0E1C00
000000
000000
E000E0
F001C0
7003C0
780380
3C0700
1C0F00
1E0E00
0E1E00
071C00
07B800
03F800
01F000
01E000
00E000
00E000
00E000
00E000
00E000
00E000
00E000
00E000
00E000
00E000
00E000
00E000
00E000
ENDCHAR
STARTCHAR 0179
ENCODING 377
SWIDTH 600 0
DWIDTH 20 0
BBX 17 32 2 0
BITMAP
001C00
003800
007000
00E000
00C000
000000
FFFF00
FFFF00
FFFF00
000F00
000E00
001C00
003C00
003800
007800
00F000
00E000
01E000
03C000
038000
078000
070000
0E0000
1E0000
1C0000
3C0000
780000
700000
F00000
FFFF80
FFFF80
FFFF80
ENDCHAR
STARTCHAR 017A
ENCODING 378
SWIDTH 510 0
DWIDTH 17 0
BBX 14 25 2 0
BITMAP
0070
00E0
01C0
0380
0300
0000
0000
FFF8
FFF8
0038
0070
00E0
01E0
01C0
0380
0700
0F00
0E00
1C00
3800
7800
F000
E004
FFFC
FFFC
ENDCHAR
STARTCHAR 017D
ENCODING 381
SWIDTH 600 0
DWIDTH 20 0
BBX 17 32 2 0
BITMAP
1C0E00
0E1C00
073800
03F000
01E000
000000
FFFF00
FFFF00
FFFF00
000F00
000E00
001C00
003C00
003800
007800
00F000
00E000
01E000
03C000
038000
078000
070000
0E0000
1E0000
1C0000
3C0000
780000
700000
F00000
FFFF80
FFFF80
FFFF80
ENDCHAR
STARTCHAR 017E
ENCODING 382
SWIDTH 510 0
DWIDTH 17 0
BBX 14 25 2 0
BITMAP
7070
38E0
1DC0
0F80
0700
0000
0000
FFF8
FFF8
0038
0070
00E0
01E0
01C0
0380
0700
0F00
0E00
1C00
3800
7800
F000
E004
FFFC
FFFC
ENDCHAR
STARTCHAR 01FC
ENCODING 508
SWIDTH 990 0
DWIDTH 33 0
BBX 30 32 1 0
BITMAP
00001E00
00003800
00007000
00006000
0000C000
00000000
0003FFFC
0007FFFC
0007FFFC
000EE000
000EE000
001CE000
003CE000
0038E000
0078E000
0070E000
00F0E000
00E0FFF0
01E0FFF0
01C0FFF0
03C0E000
03FFE000
07FFE000
0FFFE000
0E00E000
1E00E000
1C00E000
3C00E000
3800E000
7000E00C
7000FFFC
E000FFFC
ENDCHAR
STARTCHAR 01FD
ENCODING 509
SWIDTH 900 0
DWIDTH 30 0
BBX 26 25 2 0
BITMAP
0001E000
0001C000
00038000
00060000
000C0000
00000000
00000000
0FF1FC00
3FFFFE00
FC3F0700
603E0380
001C0380
001C01C0
003FFFC0
07FFFFC0
3FF80000
7E180000
F0180000
E0180000
E01C0000
E03C0180
E07E03C0
E0EF0780
7FC7FF00
3F01FC00
ENDCHAR
STARTCHAR 0237
ENCODING 567
SWIDTH 210 0
DWIDTH 7 0
BBX 5 27 -1 -9
BITMAP
38
38
38
38
38
38
38
38
38
38
38
38
38
38
38
38
38
38
38
38
38
38
38
70
F0
E0
C0
ENDCHAR
STARTCHAR 02C6
ENCODING 710
SWIDTH 510 0
DWIDTH 17 0
BBX 12 5 2 20
BITMAP
0700
0F80
19C0
30E0
E070
ENDCHAR
STARTCHAR 02C7
ENCODING 711
SWIDTH 510 0
DWIDTH 17 0
BBX 12 5 2 20
BITMAP
E070
70E0
19C0
0F80
0700
ENDCHAR
STARTCHAR 02D8
ENCODING 728
SWIDTH 420 0
DWIDTH 14 0
BBX 10 5 2 20
BITMAP
C0C0
E0C0
71C0
3F80
1E00
ENDCHAR
STARTCHAR 02D9
ENCODING 729
SWIDTH 180 0
DWIDTH 6 0
BBX 4 3 1 22
BITMAP
70
F0
60
ENDCHAR
STARTCHAR 02DA
ENCODING 730
SWIDTH 330 0
DWIDTH 11 0
BBX 6 6 2 20
BITMAP
38
7C
C4
C4
7C
38
ENDCHAR
STARTCHAR 02DB
ENCODING 731
SWIDTH 330 0
DWIDTH 11 0
BBX 6 7 2 -5
BITMAP
30
60
40
C0
C0
FC
78
ENDCHAR
STARTCHAR 02DC
ENCODING 732
SWIDTH 540 0
DWIDTH 18 0
BBX 14 3 2 21
BITMAP
7F08
FFFC
43F0
ENDCHAR
STARTCHAR 02DD
ENCODING 733
SWIDTH 480 0
DWIDTH 16 0
BBX 12 5 2 20
BITMAP
0EF0
1CE0
39C0
7300
E600
ENDCHAR
STARTCHAR 1E80
ENCODING 7808
SWIDTH 990 0
DWIDTH 33 0
BBX 31 32 1 0
BITMAP
00780000
001C0000
000E0000
00070000
00030000
00000000
E003800E
E007801C
6007801C
7007C01C
7007C038
700FC038
380FC038
380EE038
381CE070
381CE070
1C1C7070
1C1C7060
1C3870E0
0C3870E0
0E3838E0
0E3038C0
0E7039C0
067019C0
07701DC0
07601D80
03E01F80
03E00F80
03C00F00
03C00F00
01C00700
01C00700
ENDCHAR
STARTCHAR 1E81
ENCODING 7809
SWIDTH 780 0
DWIDTH 26 0
BBX 24 25 1 0
BITMAP
038000
01C000
00E000
007000
003800
000000
000000
E03807
E03806
703C0E
703C0E
707C0C
706E1C
386E1C
38E618
38E638
18C738
1CC330
1DC330
1D83F0
0F81F0
0F81E0
0F01E0
0701E0
0700C0
ENDCHAR
STARTCHAR 1E82
ENCODING 7810
SWIDTH 990 0
DWIDTH 33 0
BBX 31 32 1 0
BITMAP
00003800
00007000
0000E000
0001C000
00038000
00000000
E003800E
E007801C
6007801C
7007C01C
7007C038
700FC038
380FC038
380EE038
381CE070
381CE070
1C1C7070
1C1C7060
1C3870E0
0C3870E0
0E3838E0
0E3038C0
0E7039C0
067019C0
07701DC0
07601D80
03E01F80
03E00F80
03C00F00
03C00F00
01C00700
01C00700
ENDCHAR
STARTCHAR 1E83
ENCODING 7811
SWIDTH 780 0
DWIDTH 26 0
BBX 24 25 1 0
BITMAP
0003C0
000780
000600
000C00
001800
000000
000000
E03807
E03806
703C0E
703C0E
707C0C
706E1C
386E1C
38E618
38E638
18C738
1CC330
1DC330
1D83F0
0F81F0
0F81E0
0F01E0
0701E0
0700C0
ENDCHAR
STARTCHAR 1E84
ENCODING 7812
SWIDTH 990 0
DWIDTH 33 0
BBX 31 31 1 0
BITMAP
00187000
003C7000
00387000
00000000
00000000
E003800E
E007801C
6007801C
7007C01C
7007C038
700FC038
380FC038
380EE038
381CE070
381CE070
1C1C7070
1C1C7060
1C3870E0
0C3870E0
0E3838E0
0E3038C0
0E7039C0
067019C0
07701DC0
07601D80
03E01F80
03E00F80
03C00F00
03C00F00
01C00700
01C00700
ENDCHAR
STARTCHAR 1E85
ENCODING 7813
SWIDTH 780 0
DWIDTH 26 0
BBX 24 24 1 0
BITMAP
01C380
01C380
01C380
000000
000000
000000
E03807
E03806
703C0E
703C0E
707C0C
706E1C
386E1C
38E618
38E638
18C738
1CC330
1DC330
1D83F0
0F81F0
0F81E0
0F01E0
0701E0
0700C0
ENDCHAR
STARTCHAR 1EF2
ENCODING 7922
SWIDTH 630 0
DWIDTH 21 0
BBX 19 32 1 0
BITMAP
0E0000
070000
038000
01C000
00E000
000000
E000E0
F001C0
7003C0
780380
3C0700
1C0F00
1E0E00
0E1E00
071C00
07B800
03F800
01F000
01E000
00E000
00E000
00E000
00E000
00E000
00E000
00E000
00E000
00E000
00E000
00E000
00E000
00E000
ENDCHAR
STARTCHAR 1EF3
ENCODING 7923
SWIDTH 510 0
DWIDTH 17 0
BBX 17 34 0 -9
BITMAP
1E0000
070000
030000
018000
00C000
000000
000000
700380
700700
700700
380E00
380E00
1C1C00
1C1C00
1C1C00
0E3800
0E3800
077000
077000
07E000
03E000
03E000
01C000
01C000
038000
038000
038000
070000
070000
0E0000
1E0000
7C0000
F80000
E00000
ENDCHAR
STARTCHAR 2013
ENCODING 8211
SWIDTH 660 0
DWIDTH 22 0
BBX 18 2 2 8
BITMAP
FFFFC0
FFFFC0
ENDCHAR
STARTCHAR 2014
ENCODING 8212
SWIDTH 780 0
DWIDTH 26 0
BBX 22 2 2 8
BITMAP
FFFFFC
FFFFFC
ENDCHAR
STARTCHAR 2018
ENCODING 8216
SWIDTH 210 0
DWIDTH 7 0
BBX 4 8 1 18
BITMAP
30
30
60
60
40
F0
70
70
ENDCHAR
STARTCHAR 2019
ENCODING 8217
SWIDTH 210 0
DWIDTH 7 0
BBX 4 9 1 17
BITMAP
70
F0
70
70
30
30
30
60
40
ENDCHAR
STARTCHAR 201C
ENCODING 8220
SWIDTH 390 0
DWIDTH 13 0
BBX 10 9 1 18
BITMAP
0080
30C0
6180
6180
6300
4300
F3C0
73C0
71C0
ENDCHAR
STARTCHAR 201D
ENCODING 8221
SWIDTH 390 0
DWIDTH 13 0
BBX 10 8 1 18
BITMAP
2180
73C0
F3C0
71C0
30C0
30C0
6180
6300
ENDCHAR
STARTCHAR 2022
ENCODING 8226
SWIDTH 330 0
DWIDTH 11 0
BBX 7 8 2 4
BITMAP
10
7C
FE
FE
FE
FE
7E
3C
ENDCHAR
STARTCHAR 2026
ENCODING 8230
SWIDTH 600 0
DWIDTH 20 0
BBX 18 4 1 0
BITMAP
70E380
F9E3C0
79E3C0
70E180
ENDCHAR
STARTCHAR 2122
ENCODING 8482
SWIDTH 840 0
DWIDTH 28 0
BBX 25 12 2 13
BITMAP
FFDC0380
FFDC0780
0C1E0780
0C1E0780
0C1F0F80
0C1F0F80
0C1D9B80
0C1D9B80
0C1DF380
0C1CF380
0C1CF380
0C1C6380
ENDCHAR
STARTCHAR 2212
ENCODING 8722
SWIDTH 660 0
DWIDTH 22 0
BBX 18 2 2 8
BITMAP
FFFFC0
FFFFC0
ENDCHAR
STARTCHAR FB00
ENCODING 64256
SWIDTH 660 0
DWIDTH 22 0
BBX 22 27 1 0
BITMAP
0FE7F0
1FFFFC
1C3E1C
381C00
381C00
381C00
381C00
381C00
381C00
FFFFE0
FFFFE0
381C00
381C00
381C00
381C00
381C00
381C00
381C00
381C00
381C00
381C00
381C00
381C00
381C00
381C00
381C00
381C00
ENDCHAR
STARTCHAR FB01
ENCODING 64257
SWIDTH 570 0
DWIDTH 19 0
BBX 16 27 1 0
BITMAP
07E0
0FF8
1C3E
180C
3800
3800
3800
3800
3800
FFFF
FFFF
3807
3807
3807
3807
3807
3807
3807
3807
3807
3807
3807
3807
3807
3807
3807
3807
ENDCHAR
STARTCHAR FB02
ENCODING 64258
SWIDTH 630 0
DWIDTH 21 0
BBX 18 27 1 0
BITMAP
0FE700
1FF700
1C3700
180700
380700
380700
380700
380700
380700
FFE700
FFE700
380700
380700
380700
380700
380700
380700
380700
380700
380700
380700
380700
380700
380700
380780
3803C0
3801C0
ENDCHAR
STARTCHAR FB03
ENCODING 64259
SWIDTH 840 0
DWIDTH 28 0
BBX 25 27 1 0
BITMAP
0FE3F000
1FFFFC00
1C3E1F00
180C0600
381C0000
381C0000
381C0000
381C0000
381C0000
FFFFFF80
FFFFFF80
381C0380
381C0380
381C0380
381C0380
381C0380
381C0380
381C0380
381C0380
381C0380
381C0380
381C0380
381C0380
381C0380
381C0380
381C0380
381C0380
ENDCHAR
STARTCHAR FB04
ENCODING 64260
SWIDTH 900 0
DWIDTH 30 0
BBX 27 27 1 0
BITMAP
0FE3F380
1FFFFB80
1C3E1B80
180C0380
381C0380
381C0380
381C0380
381C0380
381C0380
FFFFF380
FFFFF380
381C0380
381C0380
381C0380
381C0380
381C0380
381C0380
381C0380
381C0380
381C0380
381C0380
381C0380
381C0380
381C0380
381C03C0
381C01E0
381C00E0
ENDCHAR
ENDFONT
